<svg width="212" height="36" viewBox="0 0 212 36" fill="none" xmlns="http://www.w3.org/2000/svg">
<g clip-path="url(#clip0)">
<path d="M46.8004 17.4662C46.8004 18.5294 46.4207 19.4407 45.7372 20.2001C45.0537 20.9595 43.9906 21.2632 42.9274 21.2632C41.8642 21.2632 40.9529 20.8835 40.2695 20.2001C39.586 19.4407 39.2823 18.5294 39.2823 17.4662C39.2823 16.403 39.662 15.4917 40.2695 14.8083C40.9529 14.0489 41.8642 13.6692 42.9274 13.6692C43.9906 13.6692 45.0537 14.0489 45.7372 14.8083C46.4207 15.4917 46.8004 16.3271 46.8004 17.4662ZM46.7244 12.3782C45.5853 11.3909 44.2184 10.9353 42.6236 10.9353C40.877 10.9353 39.1304 11.5428 37.9913 12.7579C36.7762 13.9729 36.2446 15.5677 36.2446 17.3903C36.2446 19.2888 36.8522 20.8835 37.9913 22.0986C39.1304 23.3896 40.8011 23.9971 42.6236 23.9971C44.2943 23.9971 45.4334 23.5415 46.7244 22.5542V23.6933H49.5342V11.1631H46.7244V12.3782Z" fill="white"/>
<path fill-rule="evenodd" clip-rule="evenodd" d="M52.268 23.8452C53.7868 23.8452 54.9259 23.2377 55.6853 21.9467C55.9891 21.491 56.2928 20.7316 56.4447 20.276C56.6726 19.7444 56.8244 18.6812 56.9763 18.2256C57.0523 17.9977 57.1282 17.618 57.2041 17.0865L57.356 16.0233C57.356 15.7955 57.432 15.4158 57.5079 14.8082L57.6598 13.7451H60.4696V23.5414H63.4313V11.1631H55.0778L54.9259 12.1503C54.6981 14.5045 54.3943 16.403 54.1665 17.694C53.9387 18.985 53.6349 19.9722 53.1033 20.6557C52.6477 21.2632 52.0402 21.567 51.2808 21.567L51.4326 23.7692C51.8123 23.8452 52.0402 23.8452 52.268 23.8452Z" fill="white"/>
<path d="M90.1626 13.5174C93.0484 13.5174 94.7191 15.0362 94.7191 17.4663C94.7191 19.8964 92.9724 21.4152 90.1626 21.4152V13.5174ZM82.7964 17.4663C82.7964 15.0362 84.4671 13.5174 87.3528 13.5174V21.4152C84.4671 21.3393 82.7964 19.8964 82.7964 17.4663ZM97.6048 17.4663C97.6048 15.4918 96.9214 13.8971 95.5544 12.758C94.1875 11.5429 92.3649 10.9354 90.1626 10.8595V7.51807H87.3528V10.8595C85.1506 10.9354 83.252 11.5429 81.961 12.758C80.5941 13.8971 79.9106 15.4918 79.9106 17.4663C79.9106 19.4407 80.5941 20.9596 81.961 22.0987C83.328 23.2378 85.1506 23.9212 87.3528 23.9972V27.3386H90.1626V23.9972C92.4409 23.9212 94.2634 23.3137 95.5544 22.1746C96.9214 20.9596 97.6048 19.3648 97.6048 17.4663Z" fill="white"/>
<path d="M67.836 23.6933L74.8985 15.8714V23.6933H77.7842V11.1631H75.8857L68.8992 19.0609V11.1631H65.9375V23.6933H67.836Z" fill="white"/>
<path d="M113.476 13.2135C112.337 11.8466 110.894 11.0872 109.072 11.0872C107.325 11.0872 105.806 11.6947 104.667 12.9097C103.528 14.1248 102.92 15.6436 102.92 17.4662C102.92 19.2887 103.528 20.8835 104.667 22.0986C105.882 23.3136 107.325 23.9971 109.072 23.9971C110.894 23.9971 112.337 23.3136 113.476 21.9467V23.6933H115.451V11.3909H113.476V13.2135ZM113.628 17.5421C113.628 18.8331 113.248 19.8963 112.413 20.8076C111.654 21.7188 110.59 22.0986 109.299 22.0986C108.008 22.0986 106.945 21.6429 106.186 20.8076C105.426 19.8963 104.971 18.8331 104.971 17.5421C104.971 16.2511 105.351 15.188 106.186 14.2767C106.945 13.3654 108.008 12.9097 109.299 12.9097C110.59 12.9097 111.654 13.3654 112.413 14.2767C113.248 15.188 113.628 16.2511 113.628 17.5421ZM128.664 23.6933L122.741 16.5549L128.512 11.3909H125.703L120.007 16.4789V11.3909H117.957V23.6933H120.007V18.985L121.222 17.9218L125.93 23.7692H128.664V23.6933ZM138.992 13.2135C137.853 11.8466 136.41 11.0872 134.588 11.0872C132.841 11.0872 131.322 11.6947 130.183 12.9097C129.044 14.1248 128.436 15.6436 128.436 17.4662C128.436 19.2887 129.044 20.8835 130.183 22.0986C131.398 23.3136 132.841 23.9971 134.588 23.9971C136.41 23.9971 137.853 23.3136 138.992 21.9467V23.6933H140.967V11.3909H138.992V13.2135ZM139.144 17.5421C139.144 18.8331 138.764 19.8963 137.929 20.8076C137.17 21.7188 136.106 22.0986 134.815 22.0986C133.524 22.0986 132.461 21.7188 131.702 20.8076C130.943 19.8963 130.487 18.8331 130.487 17.5421C130.487 16.2511 130.867 15.188 131.702 14.2767C132.461 13.3654 133.524 12.9097 134.815 12.9097C136.106 12.9097 137.17 13.3654 137.929 14.2767C138.688 15.188 139.144 16.2511 139.144 17.5421ZM154.484 11.3909H146.51L145.903 15.188C145.447 18.4534 144.84 20.6557 144.156 21.7948H142.789V26.3512H144.764V23.6174H153.877V26.3512H155.775V21.7948H154.56V11.3909H154.484ZM148.257 13.2135H152.51V21.8707H146.358C147.042 20.5797 147.574 17.9218 148.181 14.0488L148.257 13.2135ZM169.141 17.3143C169.141 15.4158 168.609 13.897 167.47 12.7579C166.407 11.6187 164.964 11.0872 163.217 11.0872C161.395 11.0872 159.876 11.6947 158.737 12.9097C157.598 14.1248 156.99 15.6436 156.99 17.5421C156.99 20.7316 158.889 23.9971 163.521 23.9971C165.571 23.9971 167.622 23.2377 168.761 22.2504L167.926 20.6557C166.711 21.491 165.04 22.0226 163.597 22.0226C160.939 22.0226 159.496 20.5038 159.192 18.3775H169.065C169.065 17.8459 169.141 17.4662 169.141 17.3143ZM163.217 12.9097C165.268 12.9097 166.862 14.2767 166.938 16.5549H159.192C159.496 14.4285 161.091 12.9097 163.217 12.9097ZM173.317 23.6933V15.5677L178.102 21.8707H178.633L183.418 15.5677V23.6933H185.468V11.3909H184.329L178.405 19.2128L172.406 11.3909H171.267V23.6933H173.317ZM189.265 23.6933L197.163 14.5804V23.6933H199.137V11.3909H197.922L190.024 20.5038V11.3909H188.05V23.6933H189.265ZM206.503 11.3909C204.833 11.3909 203.618 11.7706 202.858 12.53C202.099 13.2894 201.643 14.2007 201.643 15.2639C201.643 16.9346 202.631 18.3775 204.529 18.909L201.112 23.6933H203.466L206.579 19.1369C207.567 19.1369 208.478 19.0609 209.237 18.909V23.6933H211.288V11.3909H206.503ZM206.655 17.3143C204.681 17.3143 203.694 16.6308 203.694 15.188C203.694 13.821 204.605 13.1376 206.503 13.1376H209.237V17.1624C208.63 17.3143 207.719 17.3143 206.655 17.3143Z" fill="white"/>
<path fill-rule="evenodd" clip-rule="evenodd" d="M16.1206 35.9201C13.6905 35.6922 11.4122 35.0088 9.28588 33.8697C5.26101 31.6674 2.14743 27.9463 0.704556 23.2379C-0.662381 18.5296 0.0210872 13.6694 2.22337 9.72044C5.10913 4.40457 10.6528 0.759409 16.5762 0H16.7281L18.2469 3.79705C18.171 3.79705 18.095 3.79705 18.095 3.79705C13.0829 4.10081 8.07083 7.06251 5.64072 11.543C3.89407 14.6566 3.43843 18.4536 4.5016 22.0988C5.56477 25.8199 8.07083 28.7057 11.1844 30.3764C12.8551 31.2877 14.6777 31.8192 16.5762 32.0471C20.753 32.4268 24.6259 31.0598 27.6636 28.6297C27.8155 28.4778 27.9673 28.4019 28.1192 28.25L29.638 32.0471C25.9169 34.8569 21.1327 36.3757 16.1206 35.9201ZM20.2214 8.88509H15.4371L9.134 24.453H13.2348L17.8672 12.3784L22.4996 24.453H26.6004L20.2214 8.88509Z" fill="#00BFBF"/>
</g>
<defs>
<clipPath id="clip0">
<rect width="212" height="36" fill="white"/>
</clipPath>
</defs>
</svg>
