<svg width="133" height="41" viewBox="0 0 133 41" fill="none" xmlns="http://www.w3.org/2000/svg">
<g clip-path="url(#clip0)">
<path fill-rule="evenodd" clip-rule="evenodd" d="M25.6226 25.0799C25.6505 20.5628 21.6594 16.5527 17.0828 16.4984C12.3089 16.4431 8.20795 20.432 8.19027 25.149C8.17351 29.6337 12.2875 33.5526 17.0232 33.5618C21.6054 33.571 25.5937 29.6374 25.6226 25.0799ZM67.5499 10.5113C69.0912 11.3463 70.3105 12.4551 71.2078 13.8403C72.3191 12.3482 73.6724 11.2127 75.2687 10.4311C76.8631 9.6505 78.6846 9.25972 80.7276 9.25972C84.3855 9.25972 87.3249 10.4404 89.5485 12.8016C91.7721 15.1629 92.8834 18.385 92.8834 22.4679V39.724H85.7305V24.066C85.7305 21.4025 85.2456 19.3877 84.2776 18.0209C83.3096 16.6541 81.839 15.9703 79.8667 15.9703C77.8944 16.0062 76.4331 16.6984 75.4837 18.0477C74.5334 19.3979 74.0587 21.4025 74.0587 24.066V39.724H66.9048V24.066C66.9048 21.4025 66.4208 19.3877 65.4528 18.0209C64.4839 16.6541 63.0133 15.9703 61.041 15.9703C59.0687 15.9703 57.599 16.6541 56.631 18.0209C55.663 19.3877 55.1967 21.4025 55.2321 24.066V39.724H55.0245H47.8958V10.1454H55.0245V12.5684C55.8138 11.5731 56.8237 10.7887 58.057 10.2182C59.4364 9.57953 60.9154 9.25972 62.4939 9.25972C64.3229 9.25972 66.0085 9.67723 67.5499 10.5113ZM43.9829 10.1454V39.724H36.8541V10.1454H43.9829ZM33.0696 10.0689V39.7276H25.7315C25.6784 39.2152 25.6263 38.7258 25.5695 38.1765C16.4732 42.3691 8.6268 41.2447 3.03848 32.4853C-0.458408 27.0043 0.583119 19.7306 4.99402 14.8956C10.0499 9.35281 16.7905 8.42563 25.6263 12.1712V10.0689H33.0696ZM109.232 10.0182C112.922 10.0182 115.846 10.8671 118.007 12.5657C120.167 14.2634 121.367 16.5537 121.608 19.4366H114.322C114.247 18.7205 114.113 18.1195 113.919 17.6329C113.723 17.1463 113.247 16.6873 112.486 16.256C111.726 15.8246 110.697 15.609 109.399 15.609C108.027 15.609 106.947 15.8329 106.159 16.2836C105.372 16.7334 104.978 17.3343 104.978 18.0873C104.978 18.3444 105.014 18.5785 105.089 18.7896C105.163 19.0006 105.292 19.1887 105.478 19.3536C105.664 19.5186 105.854 19.6707 106.048 19.808C106.243 19.9453 106.512 20.0698 106.854 20.1794C107.198 20.29 107.49 20.3813 107.731 20.455C107.971 20.5287 108.301 20.6117 108.718 20.7029C109.135 20.7951 109.469 20.8633 109.719 20.9094C109.969 20.9555 110.326 21.0154 110.79 21.0891L111.791 21.2541C113.46 21.5103 114.863 21.8181 116.005 22.1767C117.145 22.5343 118.276 23.0347 119.397 23.6771C120.519 24.3195 121.357 25.1822 121.914 26.266C122.47 27.349 122.748 28.6614 122.748 30.2033C122.748 33.3609 121.571 35.7433 119.216 37.3498C116.862 38.9562 113.729 39.759 109.816 39.759C105.719 39.759 102.521 38.8917 100.223 37.1572C97.9226 35.4217 96.6996 32.9941 96.5507 29.8734H104.115C104.227 31.1213 104.76 32.1498 105.715 32.9572C106.669 33.7655 108.074 34.1692 109.928 34.1692C111.374 34.1692 112.524 33.8752 113.376 33.2881C114.229 32.7001 114.656 31.9932 114.656 31.1674C114.656 30.6346 114.502 30.1941 114.197 29.8457C113.891 29.4964 113.404 29.2162 112.737 29.0061C112.069 28.7941 111.471 28.643 110.943 28.5517C110.414 28.4595 109.696 28.3582 108.787 28.2485C107.731 28.1379 106.86 28.0236 106.174 27.9038C105.488 27.7849 104.519 27.5185 103.267 27.1056C102.016 26.6927 101.001 26.2061 100.223 25.6457C99.4435 25.0863 98.7482 24.2596 98.1367 23.1674C97.5242 22.0753 97.2189 20.8126 97.2189 19.3813C97.2189 16.5537 98.2847 14.2864 100.417 12.5795C102.549 10.8717 105.488 10.0182 109.232 10.0182ZM43.9652 0.00634766V7.29107H36.8039V0.00634766H43.9652ZM125.506 32.3185H132.667V39.6032H125.506V32.3185Z" fill="#0027A0"/>
</g>
<defs>
<clipPath id="clip0">
<rect width="132" height="41" fill="white" transform="translate(0.945312)"/>
</clipPath>
</defs>
</svg>
