<svg width="132" height="41" viewBox="0 0 132 41" fill="none" xmlns="http://www.w3.org/2000/svg">
<g opacity="0.4">
<path fill-rule="evenodd" clip-rule="evenodd" d="M24.6773 25.0799C24.7052 20.5628 20.7141 16.5527 16.1375 16.4984C11.3636 16.4431 7.26264 20.432 7.24495 25.149C7.2282 29.6337 11.3422 33.5526 16.0779 33.5618C20.6601 33.571 24.6484 29.6374 24.6773 25.0799ZM66.6045 10.5113C68.1459 11.3463 69.3652 12.4551 70.2625 13.8403C71.3738 12.3482 72.7271 11.2127 74.3234 10.4311C75.9178 9.6505 77.7393 9.25972 79.7823 9.25972C83.4402 9.25972 86.3796 10.4404 88.6032 12.8016C90.8268 15.1629 91.9381 18.385 91.9381 22.4679V39.724H84.7852V24.066C84.7852 21.4025 84.3003 19.3877 83.3323 18.0209C82.3643 16.6541 80.8937 15.9703 78.9214 15.9703C76.9491 16.0062 75.4878 16.6984 74.5384 18.0477C73.5881 19.3979 73.1134 21.4025 73.1134 24.066V39.724H65.9595V24.066C65.9595 21.4025 65.4755 19.3877 64.5075 18.0209C63.5386 16.6541 62.068 15.9703 60.0957 15.9703C58.1234 15.9703 56.6537 16.6541 55.6857 18.0209C54.7177 19.3877 54.2514 21.4025 54.2868 24.066V39.724H54.0792H46.9505V10.1454H54.0792V12.5684C54.8685 11.5731 55.8784 10.7887 57.1117 10.2182C58.4911 9.57953 59.97 9.25972 61.5486 9.25972C63.3776 9.25972 65.0632 9.67723 66.6045 10.5113ZM43.0376 10.1454V39.724H35.9088V10.1454H43.0376ZM32.1243 10.0689V39.7276H24.7862C24.7331 39.2152 24.681 38.7258 24.6242 38.1765C15.5278 42.3691 7.68148 41.2447 2.09317 32.4853C-1.40372 27.0043 -0.362194 19.7306 4.04871 14.8956C9.10462 9.35281 15.8452 8.42563 24.681 12.1712V10.0689H32.1243ZM108.287 10.0182C111.977 10.0182 114.901 10.8671 117.061 12.5657C119.222 14.2634 120.421 16.5537 120.662 19.4366H113.376C113.302 18.7205 113.168 18.1195 112.973 17.6329C112.778 17.1463 112.301 16.6873 111.541 16.256C110.781 15.8246 109.752 15.609 108.454 15.609C107.082 15.609 106.002 15.8329 105.214 16.2836C104.426 16.7334 104.032 17.3343 104.032 18.0873C104.032 18.3444 104.069 18.5785 104.143 18.7896C104.218 19.0006 104.347 19.1887 104.532 19.3536C104.718 19.5186 104.908 19.6707 105.103 19.808C105.297 19.9453 105.566 20.0698 105.909 20.1794C106.252 20.29 106.545 20.3813 106.786 20.455C107.026 20.5287 107.355 20.6117 107.772 20.7029C108.189 20.7951 108.523 20.8633 108.774 20.9094C109.024 20.9555 109.381 21.0154 109.844 21.0891L110.846 21.2541C112.515 21.5103 113.918 21.8181 115.059 22.1767C116.199 22.5343 117.33 23.0347 118.452 23.6771C119.573 24.3195 120.412 25.1822 120.969 26.266C121.524 27.349 121.803 28.6614 121.803 30.2033C121.803 33.3609 120.625 35.7433 118.27 37.3498C115.917 38.9562 112.784 39.759 108.871 39.759C104.773 39.759 101.575 38.8917 99.2772 37.1572C96.9773 35.4217 95.7543 32.9941 95.6053 29.8734H103.17C103.281 31.1213 103.815 32.1498 104.77 32.9572C105.724 33.7655 107.128 34.1692 108.982 34.1692C110.429 34.1692 111.578 33.8752 112.431 33.2881C113.283 32.7001 113.711 31.9932 113.711 31.1674C113.711 30.6346 113.557 30.1941 113.252 29.8457C112.946 29.4964 112.459 29.2162 111.791 29.0061C111.124 28.7941 110.526 28.643 109.998 28.5517C109.469 28.4595 108.751 28.3582 107.842 28.2485C106.786 28.1379 105.915 28.0236 105.229 27.9038C104.543 27.7849 103.574 27.5185 102.322 27.1056C101.071 26.6927 100.055 26.2061 99.2772 25.6457C98.4982 25.0863 97.8029 24.2596 97.1914 23.1674C96.5789 22.0753 96.2736 20.8126 96.2736 19.3813C96.2736 16.5537 97.3393 14.2864 99.4717 12.5795C101.603 10.8717 104.543 10.0182 108.287 10.0182ZM43.0199 0.00634766V7.29107H35.8586V0.00634766H43.0199ZM124.561 32.3185H131.722V39.6032H124.561V32.3185Z" fill="#0027A0"/>
</g>
</svg>