<svg width="77" height="29" viewBox="0 0 77 29" fill="none" xmlns="http://www.w3.org/2000/svg">
<g clip-path="url(#clip0)">
<path d="M36.7723 14.0698C36.7723 14.9263 36.474 15.6604 35.937 16.2721C35.4 16.8839 34.5646 17.1286 33.7293 17.1286C32.8939 17.1286 32.1779 16.8227 31.6409 16.2721C31.1039 15.6604 30.8652 14.9263 30.8652 14.0698C30.8652 13.2134 31.1636 12.4793 31.6409 11.9287C32.1779 11.317 32.8939 11.0111 33.7293 11.0111C34.5646 11.0111 35.4 11.317 35.937 11.9287C36.474 12.4793 36.7723 13.1522 36.7723 14.0698ZM36.7127 9.97115C35.8176 9.17588 34.7436 8.80884 33.4906 8.80884C32.1182 8.80884 30.7459 9.29823 29.8509 10.277C28.8962 11.2558 28.4785 12.5405 28.4785 14.0087C28.4785 15.538 28.9559 16.8227 29.8509 17.8015C30.7459 18.8414 32.0586 19.3308 33.4906 19.3308C34.8033 19.3308 35.6983 18.9638 36.7127 18.1685V19.0861H38.9204V8.99236H36.7127V9.97115Z" fill="white"/>
<path fill-rule="evenodd" clip-rule="evenodd" d="M41.0687 19.2086C42.262 19.2086 43.157 18.7192 43.7537 17.6792C43.9924 17.3122 44.231 16.7004 44.3504 16.3334C44.5294 15.9051 44.6487 15.0487 44.768 14.6817C44.8277 14.4981 44.8874 14.1923 44.947 13.764L45.0664 12.9076C45.0664 12.7241 45.126 12.4182 45.1857 11.9288L45.3051 11.0724H47.5128V18.9639H49.8398V8.99243H43.2764L43.157 9.7877C42.978 11.6841 42.7393 13.2135 42.5603 14.2534C42.3813 15.2934 42.1427 16.0887 41.725 16.6392C41.367 17.1286 40.8896 17.3733 40.293 17.3733L40.4123 19.1474C40.7106 19.2086 40.8896 19.2086 41.0687 19.2086Z" fill="white"/>
<path d="M70.8422 10.8889C73.1096 10.8889 74.4223 12.1124 74.4223 14.07C74.4223 16.0276 73.0499 17.2511 70.8422 17.2511V10.8889ZM65.0545 14.07C65.0545 12.1124 66.3672 10.8889 68.6345 10.8889V17.2511C66.3672 17.1899 65.0545 16.0276 65.0545 14.07ZM76.6897 14.07C76.6897 12.4795 76.1527 11.1948 75.0786 10.2772C74.0046 9.2984 72.5726 8.809 70.8422 8.74783V6.05615H68.6345V8.74783C66.9042 8.809 65.4125 9.2984 64.3981 10.2772C63.3241 11.1948 62.7871 12.4795 62.7871 14.07C62.7871 15.6605 63.3241 16.884 64.3981 17.8016C65.4722 18.7193 66.9042 19.2698 68.6345 19.331V22.0227H70.8422V19.331C72.6323 19.2698 74.0643 18.7804 75.0786 17.8628C76.1527 16.884 76.6897 15.5994 76.6897 14.07Z" fill="white"/>
<path d="M53.3003 19.0862L58.8494 12.7852V19.0862H61.1168V8.99243H59.6251L54.1356 15.3546V8.99243H51.8086V19.0862H53.3003Z" fill="white"/>
<path fill-rule="evenodd" clip-rule="evenodd" d="M12.6662 28.9356C10.7568 28.7521 8.96675 28.2015 7.29605 27.2839C4.13365 25.5098 1.68727 22.5123 0.553579 18.7194C-0.520442 14.9266 0.0165685 11.0114 1.74694 7.83035C4.01432 3.54813 8.37007 0.611746 13.0242 0H13.1435L14.3369 3.05873C14.2772 3.05873 14.2175 3.05873 14.2175 3.05873C10.2794 3.30343 6.34136 5.68924 4.43199 9.29854C3.05963 11.8067 2.70162 14.8654 3.53697 17.8018C4.37232 20.7994 6.34136 23.124 8.78775 24.4699C10.1004 25.2039 11.5325 25.6322 13.0242 25.8157C16.3059 26.1216 19.349 25.0204 21.7357 23.0628C21.855 22.9405 21.9743 22.8793 22.0937 22.757L23.287 25.8157C20.3633 28.0792 16.6042 29.3026 12.6662 28.9356ZM15.8882 7.15743H12.1291L7.17671 19.6982H10.3988L14.0385 9.97147L17.6783 19.6982H20.9003L15.8882 7.15743Z" fill="white"/>
</g>
<defs>
<clipPath id="clip0">
<rect width="77" height="29" fill="white"/>
</clipPath>
</defs>
</svg>
