<svg width="135" height="50" viewBox="0 0 135 50" fill="none" xmlns="http://www.w3.org/2000/svg">
<g opacity="0.4" clip-path="url(#clip0)">
<path d="M64.4698 24.7589C64.4698 26.2355 63.9467 27.5012 63.0052 28.556C62.0637 29.6107 60.5991 30.0326 59.1346 30.0326C57.67 30.0326 56.4147 29.5052 55.4732 28.556C54.5316 27.5012 54.1132 26.2355 54.1132 24.7589C54.1132 23.2823 54.6363 22.0166 55.4732 21.0674C56.4147 20.0126 57.67 19.4853 59.1346 19.4853C60.5991 19.4853 62.0637 20.0126 63.0052 21.0674C63.9467 22.0166 64.4698 23.1768 64.4698 24.7589ZM64.3652 17.6922C62.796 16.3211 60.913 15.6882 58.7161 15.6882C56.31 15.6882 53.904 16.532 52.3348 18.2196C50.661 19.9072 49.9287 22.1221 49.9287 24.6535C49.9287 27.2903 50.7656 29.5052 52.3348 31.1928C53.904 32.9858 56.2054 33.8296 58.7161 33.8296C61.0176 33.8296 62.5868 33.1968 64.3652 31.8256V33.4077H68.2358V16.0047H64.3652V17.6922Z" fill="#0027A0"/>
<path fill-rule="evenodd" clip-rule="evenodd" d="M72.0016 33.6184C74.0938 33.6184 75.663 32.7746 76.7091 30.9816C77.1276 30.3487 77.546 29.294 77.7552 28.6612C78.0691 27.9229 78.2783 26.4462 78.4875 25.8134C78.5921 25.497 78.6967 24.9696 78.8014 24.2313L79.0106 22.7547C79.0106 22.4383 79.1152 21.9109 79.2198 21.0671L79.429 19.5905H83.2997V33.1965H87.3796V16.0044H75.8722L75.663 17.3755C75.3492 20.6452 74.9307 23.282 74.6169 25.0751C74.303 26.8681 73.8846 28.2393 73.1523 29.1885C72.5246 30.0323 71.6877 30.4542 70.6416 30.4542L70.8508 33.5129C71.3739 33.6184 71.6877 33.6184 72.0016 33.6184Z" fill="#0027A0"/>
<path d="M124.204 19.2743C128.179 19.2743 130.48 21.3837 130.48 24.7589C130.48 28.134 128.074 30.2435 124.204 30.2435V19.2743ZM114.056 24.7589C114.056 21.3837 116.358 19.2743 120.333 19.2743V30.2435C116.358 30.138 114.056 28.134 114.056 24.7589ZM134.456 24.7589C134.456 22.0166 133.514 19.8016 131.631 18.2195C129.748 16.532 127.237 15.6882 124.204 15.5827V10.9419H120.333V15.5827C117.299 15.6882 114.684 16.532 112.906 18.2195C111.023 19.8016 110.081 22.0166 110.081 24.7589C110.081 27.5012 111.023 29.6106 112.906 31.1927C114.789 32.7748 117.299 33.7241 120.333 33.8296V38.4704H124.204V33.8296C127.342 33.7241 129.853 32.8803 131.631 31.2982C133.514 29.6106 134.456 27.3957 134.456 24.7589Z" fill="#0027A0"/>
<path d="M93.4473 33.4075L103.176 22.5437V33.4075H107.152V16.0044H104.536L94.9119 26.9736V16.0044H90.832V33.4075H93.4473Z" fill="#0027A0"/>
<path fill-rule="evenodd" clip-rule="evenodd" d="M22.2069 50.389C18.8593 50.0725 15.7209 49.1233 12.7918 47.5412C7.24731 44.4824 2.9582 39.3142 0.970561 32.7749C-0.912463 26.2355 0.0290487 19.4852 3.06281 14.0006C7.03809 6.61746 14.6748 1.55474 22.8346 0.5H23.0438L25.136 5.77367C25.0314 5.77367 24.9268 5.77367 24.9268 5.77367C18.0224 6.19557 11.118 10.309 7.77037 16.532C5.36429 20.8564 4.73661 26.1301 6.20119 31.1928C7.66576 36.361 11.118 40.369 15.4071 42.6894C17.7086 43.9551 20.2193 44.6934 22.8346 45.0098C28.5883 45.5372 33.9235 43.6387 38.108 40.2635C38.3172 40.0526 38.5264 39.9471 38.7357 39.7361L40.8279 45.0098C35.7019 48.9123 29.1113 51.0218 22.2069 50.389ZM27.856 12.8404H21.2654L12.5825 34.4625H18.2316L24.613 17.6922L30.9943 34.4625H36.6434L27.856 12.8404Z" fill="#0027A0"/>
</g>
<defs>
<clipPath id="clip0">
<rect width="135" height="50" fill="white" transform="translate(0 0.5)"/>
</clipPath>
</defs>
</svg>