<svg width="136" height="51" viewBox="0 0 136 51" fill="none" xmlns="http://www.w3.org/2000/svg">
<g clip-path="url(#clip0)">
<path d="M65.4151 24.7589C65.4151 26.2355 64.892 27.5012 63.9505 28.556C63.009 29.6107 61.5445 30.0326 60.0799 30.0326C58.6153 30.0326 57.36 29.5052 56.4185 28.556C55.477 27.5012 55.0585 26.2355 55.0585 24.7589C55.0585 23.2823 55.5816 22.0166 56.4185 21.0674C57.36 20.0126 58.6153 19.4853 60.0799 19.4853C61.5445 19.4853 63.009 20.0126 63.9505 21.0674C64.892 22.0166 65.4151 23.1768 65.4151 24.7589ZM65.3105 17.6922C63.7413 16.3211 61.8583 15.6882 59.6614 15.6882C57.2554 15.6882 54.8493 16.532 53.2801 18.2196C51.6063 19.9072 50.874 22.1221 50.874 24.6535C50.874 27.2903 51.7109 29.5052 53.2801 31.1928C54.8493 32.9858 57.1507 33.8296 59.6614 33.8296C61.9629 33.8296 63.5321 33.1968 65.3105 31.8256V33.4077H69.1811V16.0047H65.3105V17.6922Z" fill="#0027A0"/>
<path fill-rule="evenodd" clip-rule="evenodd" d="M72.9469 33.6184C75.0391 33.6184 76.6083 32.7746 77.6544 30.9816C78.0729 30.3487 78.4913 29.294 78.7005 28.6612C79.0144 27.9229 79.2236 26.4462 79.4328 25.8134C79.5374 25.497 79.6421 24.9696 79.7467 24.2313L79.9559 22.7547C79.9559 22.4383 80.0605 21.9109 80.1651 21.0671L80.3743 19.5905H84.245V33.1965H88.3249V16.0044H76.8175L76.6083 17.3755C76.2945 20.6452 75.876 23.282 75.5622 25.0751C75.2483 26.8681 74.8299 28.2393 74.0976 29.1885C73.4699 30.0323 72.633 30.4542 71.5869 30.4542L71.7961 33.5129C72.3192 33.6184 72.633 33.6184 72.9469 33.6184Z" fill="#0027A0"/>
<path d="M125.149 19.2743C129.124 19.2743 131.426 21.3837 131.426 24.7589C131.426 28.134 129.02 30.2435 125.149 30.2435V19.2743ZM115.002 24.7589C115.002 21.3837 117.303 19.2743 121.278 19.2743V30.2435C117.303 30.138 115.002 28.134 115.002 24.7589ZM135.401 24.7589C135.401 22.0166 134.459 19.8016 132.576 18.2195C130.693 16.532 128.183 15.6882 125.149 15.5827V10.9419H121.278V15.5827C118.245 15.6882 115.629 16.532 113.851 18.2195C111.968 19.8016 111.026 22.0166 111.026 24.7589C111.026 27.5012 111.968 29.6106 113.851 31.1927C115.734 32.7748 118.245 33.7241 121.278 33.8296V38.4704H125.149V33.8296C128.287 33.7241 130.798 32.8803 132.576 31.2982C134.459 29.6106 135.401 27.3957 135.401 24.7589Z" fill="#0027A0"/>
<path d="M94.3927 33.4075L104.122 22.5437V33.4075H108.097V16.0044H105.482L95.8572 26.9736V16.0044H91.7773V33.4075H94.3927Z" fill="#0027A0"/>
<path fill-rule="evenodd" clip-rule="evenodd" d="M23.1522 50.389C19.8046 50.0725 16.6662 49.1233 13.7371 47.5412C8.19262 44.4824 3.90351 39.3142 1.91587 32.7749C0.032849 26.2355 0.974361 19.4852 4.00812 14.0006C7.9834 6.61746 15.6201 1.55474 23.7799 0.5H23.9891L26.0814 5.77367C25.9767 5.77367 25.8721 5.77367 25.8721 5.77367C18.9677 6.19557 12.0633 10.309 8.71569 16.532C6.3096 20.8564 5.68192 26.1301 7.1465 31.1928C8.61107 36.361 12.0633 40.369 16.3524 42.6894C18.6539 43.9551 21.1646 44.6934 23.7799 45.0098C29.5336 45.5372 34.8688 43.6387 39.0533 40.2635C39.2625 40.0526 39.4718 39.9471 39.681 39.7361L41.7732 45.0098C36.6472 48.9123 30.0566 51.0218 23.1522 50.389ZM28.8013 12.8404H22.2107L13.5279 34.4625H19.1769L25.5583 17.6922L31.9397 34.4625H37.5887L28.8013 12.8404Z" fill="#0027A0"/>
</g>
<defs>
<clipPath id="clip0">
<rect width="135" height="50" fill="white" transform="translate(0.945312 0.5)"/>
</clipPath>
</defs>
</svg>
