<svg width="40" height="40" viewBox="0 0 40 40" fill="none" xmlns="http://www.w3.org/2000/svg">
<path d="M38.0953 35.8334C38.0953 37.0819 37.0819 38.0953 35.8334 38.0953H4.16669C2.91812 38.0953 1.90479 37.0819 1.90479 35.8334V4.16669C1.90479 2.91812 2.91812 1.90479 4.16669 1.90479H35.8334C37.0819 1.90479 38.0953 2.91812 38.0953 4.16669V35.8334Z" fill="#3B5998"/>
<path d="M26.7858 38.0953V24.5239H31.3096L32.4405 18.8691H26.7858V16.6072C26.7858 14.3453 27.919 13.2143 30.1786 13.2143H32.4405V7.55957C31.3096 7.55957 29.9072 7.55957 27.9167 7.55957C23.7605 7.55957 21.131 10.8178 21.131 15.4762V18.8691H16.6072V24.5239H21.131V38.0953H26.7858Z" fill="white"/>
</svg>
