<svg width="240" height="240" viewBox="0 0 240 240" fill="none" xmlns="http://www.w3.org/2000/svg">
<path d="M154.943 134.596C154.943 134.596 137.387 132.668 124.187 133.063L127.586 97.0458L121.411 98.0365L118.726 81.7797L143.558 80.6821C143.558 80.6821 145.124 82.0253 149.964 81.6034C158.846 84.1936 169.653 99.8149 169.653 99.8149L154.975 105.529L153.23 102.002L154.943 134.596Z" stroke="#021697" stroke-miterlimit="10" stroke-linecap="round" stroke-linejoin="round"/>
<path d="M160.526 149.987L110.642 179.892L128.126 206.232C128.126 206.232 208.321 171.235 200.087 149.987C191.852 128.739 60.1324 125.46 53.1239 151.952C49.7241 164.807 106.667 182.258 106.667 182.258L160.526 149.987Z" fill="#00167A" stroke="#021697" stroke-miterlimit="10" stroke-linecap="round" stroke-linejoin="round"/>
<path d="M135.106 74.0782C133.562 69.1916 142.926 56.9375 150.545 58.0083C157.684 59.0124 157.54 62.8496 158.934 65.2395C159.711 66.5667 161.954 67.8511 162.291 70.3959C162.599 72.7191 160.926 73.9661 161.151 75.886C161.373 77.79 163.202 80.957 160.68 82.3802C158.822 83.4297 158.779 79.7099 154.881 79.1465C152.044 78.7352 148.197 78.5056 143.898 77.2239C139.73 75.9822 136.33 77.9502 135.106 74.0782Z" fill="#00167A" stroke="#021697" stroke-miterlimit="10" stroke-linecap="round" stroke-linejoin="round"/>
<path d="M85.9137 53.7174C85.9137 53.7174 83.2849 39.0148 79.7031 40.0856C76.1239 41.1564 80.9559 54.1927 80.9559 54.1927C80.9559 54.1927 70.8261 59.8004 71.3909 62.3372C71.9451 64.8339 92.6812 97.8496 98.4529 99.0539C104.225 100.258 121.411 98.0365 121.411 98.0365L118.726 81.7797C118.726 81.7797 106.045 82.4259 102.324 80.6822C89.0084 74.439 92.8633 46.2433 89.8142 45.8027C86.401 45.306 85.9137 53.7174 85.9137 53.7174Z" fill="white" stroke="#021697" stroke-miterlimit="10" stroke-linecap="round" stroke-linejoin="round"/>
<path d="M82.1709 64.1159L85.2709 62.5084C85.2709 62.5084 82.0584 52.4734 78.7871 53.9901C76.3242 55.133 82.1709 64.1159 82.1709 64.1159Z" fill="white" stroke="#021697" stroke-miterlimit="10" stroke-linecap="round" stroke-linejoin="round"/>
<path d="M78.3017 66.209L81.5168 64.5027C81.5168 64.5027 78.01 54.2567 75.2928 55.664C72.332 57.1994 78.3017 66.209 78.3017 66.209Z" fill="white" stroke="#021697" stroke-miterlimit="10" stroke-linecap="round" stroke-linejoin="round"/>
<path d="M74.6 68.4685L77.5528 66.5032C77.5528 66.5032 74.0459 56.2572 71.3314 57.6645C68.368 59.1999 74.6 68.4685 74.6 68.4685Z" fill="white" stroke="#021697" stroke-miterlimit="10" stroke-linecap="round" stroke-linejoin="round"/>
<path d="M83.71 63.4111C83.71 63.4111 85.7016 66.6929 88.1163 67.1389" stroke="#021697" stroke-miterlimit="10" stroke-linecap="round" stroke-linejoin="round"/>
<path d="M169.654 99.8125C169.654 99.8125 181.531 116.67 180.728 121.343C179.965 125.787 149.52 141.314 149.52 141.314L148.663 125.837L161.149 119.007L154.973 105.527L169.654 99.8125Z" fill="white" stroke="#021697" stroke-miterlimit="10" stroke-linecap="round" stroke-linejoin="round"/>
<path d="M143.557 80.6798L145.672 75.4166C145.672 75.4166 141.335 72.2684 143.557 67.7155C145.643 66.3777 147.321 67.7823 147.792 68.319C148.263 68.8557 149.738 71.3311 151.015 71.3311C152.29 71.3311 156.185 71.1308 156.118 72.8051C156.051 74.4793 154.91 74.9466 153.7 74.2791C152.426 75.4166 150.882 76.2204 149.942 75.6863C149.741 77.4941 149.963 81.6011 149.963 81.6011C149.963 81.6011 145.257 82.0897 143.557 80.6798Z" fill="white" stroke="#021697" stroke-miterlimit="10" stroke-linecap="round" stroke-linejoin="round"/>
<path d="M185.854 64.7618L191.897 62.0835C191.897 62.0835 190.151 69.1812 192.836 71.1893C195.35 73.0692 202.704 70.4523 205.054 73.3309C207.07 75.8009 205.726 87.2592 205.726 87.2592L201.429 89.5369C201.429 89.5369 202.835 80.0974 200.356 78.0199C196.999 75.2081 191.5 78.6127 189.214 77.0827C185.855 74.8396 185.854 64.7618 185.854 64.7618Z" stroke="#021697" stroke-miterlimit="10" stroke-linecap="round" stroke-linejoin="round"/>
<path d="M146.872 146.695L86.3316 151.029C84.5701 151.155 83.0228 149.82 82.897 148.062L80.3217 112.246C80.1958 110.489 81.5344 108.945 83.2959 108.82L143.836 104.486C145.598 104.36 147.145 105.695 147.271 107.452L149.846 143.269C149.972 145.026 148.634 146.57 146.872 146.695Z" fill="white" stroke="#021697" stroke-miterlimit="10" stroke-linecap="round" stroke-linejoin="round"/>
<path d="M114.745 137.042C118.13 137.042 120.875 134.304 120.875 130.927C120.875 127.549 118.13 124.812 114.745 124.812C111.359 124.812 108.614 127.549 108.614 130.927C108.614 134.304 111.359 137.042 114.745 137.042Z" fill="white" stroke="#021697" stroke-miterlimit="10" stroke-linecap="round" stroke-linejoin="round"/>
<path d="M19.9189 230.024V55.7057C19.9189 36.7332 35.4804 21.208 54.5033 21.208H197.475C216.495 21.208 232.059 36.7305 232.059 55.7057V230.024" stroke="#021697" stroke-miterlimit="10" stroke-linecap="round" stroke-linejoin="round"/>
<path d="M35.9611 15.6509C37.926 15.6509 39.5188 14.062 39.5188 12.1021C39.5188 10.1421 37.926 8.55322 35.9611 8.55322C33.9962 8.55322 32.4033 10.1421 32.4033 12.1021C32.4033 14.062 33.9962 15.6509 35.9611 15.6509Z" fill="white" stroke="#021697" stroke-miterlimit="10" stroke-linecap="round" stroke-linejoin="round"/>
<path d="M51.7833 15.6509C53.7482 15.6509 55.3411 14.062 55.3411 12.1021C55.3411 10.1421 53.7482 8.55322 51.7833 8.55322C49.8185 8.55322 48.2256 10.1421 48.2256 12.1021C48.2256 14.062 49.8185 15.6509 51.7833 15.6509Z" fill="white" stroke="#021697" stroke-miterlimit="10" stroke-linecap="round" stroke-linejoin="round"/>
<path d="M67.7052 15.6509C69.6701 15.6509 71.263 14.062 71.263 12.1021C71.263 10.1421 69.6701 8.55322 67.7052 8.55322C65.7403 8.55322 64.1475 10.1421 64.1475 12.1021C64.1475 14.062 65.7403 15.6509 67.7052 15.6509Z" fill="#FF9C9F" stroke="#021697" stroke-miterlimit="10" stroke-linecap="round" stroke-linejoin="round"/>
<path d="M106.773 149.565L125.082 159.093" stroke="white" stroke-width="0.303395" stroke-miterlimit="10"/>
<path d="M165.731 186.947L173.949 193.196L150.56 209.055L138.222 201.548C138.222 201.548 160.738 190.285 165.731 186.947Z" fill="#00167A" stroke="#021697" stroke-miterlimit="10" stroke-linecap="round" stroke-linejoin="round"/>
<path d="M173.95 193.198L181.558 198.736L156.086 216.409L146.227 211.992L173.95 193.198Z" stroke="#021697" stroke-miterlimit="10" stroke-linecap="round" stroke-linejoin="round"/>
<path d="M179.31 200.296L186.3 206.232L159.629 234.265L164.474 218.195L160.791 213.143L179.31 200.296Z" fill="white" stroke="#021697" stroke-miterlimit="10" stroke-linecap="round" stroke-linejoin="round"/>
<path d="M110.641 179.892L97.0713 187.954L115.082 212.213L130.044 209.071L110.641 179.892Z" stroke="#021697" stroke-miterlimit="10" stroke-linecap="round" stroke-linejoin="round"/>
<path d="M99.1241 190.717L88.1162 197.93L104.765 230.694L106.644 210.705L111.243 207.041L99.1241 190.717Z" fill="white" stroke="#021697" stroke-miterlimit="10" stroke-linecap="round" stroke-linejoin="round"/>
<path d="M129.477 197.338C129.477 197.338 184.053 169.676 184.053 163.134" stroke="white" stroke-width="0.303395" stroke-miterlimit="10"/>
<path d="M19.7016 147.264C27.6588 147.264 34.1093 140.829 34.1093 132.892C34.1093 124.955 27.6588 118.521 19.7016 118.521C11.7445 118.521 5.29395 124.955 5.29395 132.892C5.29395 140.829 11.7445 147.264 19.7016 147.264Z" fill="#FF9C9F" stroke="#021697" stroke-miterlimit="10" stroke-linecap="round" stroke-linejoin="round"/>
</svg>
