<svg width="240" height="240" viewBox="0 0 240 240" fill="none" xmlns="http://www.w3.org/2000/svg">
<path d="M7.90723 200.051L46.0641 13.2354L109.242 23.4458" stroke="#021697" stroke-miterlimit="10" stroke-linecap="round" stroke-linejoin="round"/>
<path d="M72.8032 200.052C72.8032 200.052 60.7599 109.894 108.612 122.177C142.499 130.874 169.496 158.126 169.496 158.126L192.432 125.353L215.577 140.936L177.837 197.331C177.837 197.331 148.642 183.92 143.512 181.253C144.059 185.705 145.622 200.052 145.622 200.052H72.8032Z" stroke="#021697" stroke-miterlimit="10" stroke-linecap="round" stroke-linejoin="round"/>
<path d="M112.258 119.97C119.08 119.97 124.61 113.41 124.61 105.317C124.61 97.2248 119.08 90.6646 112.258 90.6646C105.436 90.6646 99.9062 97.2248 99.9062 105.317C99.9062 113.41 105.436 119.97 112.258 119.97Z" fill="white" stroke="#021697" stroke-miterlimit="10" stroke-linecap="round" stroke-linejoin="round"/>
<path d="M88.2879 102.844C88.2879 102.844 79.5306 115.335 83.1795 119.416C86.8284 123.498 89.3304 116.695 92.5623 119.416C95.7942 122.137 101.111 118.798 101.528 116.572C101.945 114.346 101.32 101.484 103.196 101.113C105.073 100.742 107.054 101.978 109.973 99.6286C112.892 97.2788 118.209 91.5898 120.502 94.0633C122.796 96.5367 124.464 105.07 121.753 109.399C119.043 113.727 117.166 124.982 123.63 123.992C130.094 123.003 126.653 120.529 128.843 120.158C131.032 119.787 141.028 126.589 140.936 116.201C140.861 107.717 134.472 115.706 132.804 104.204C131.136 92.7028 125.611 78.7277 109.243 80.3355C92.8751 81.9433 88.2879 102.844 88.2879 102.844Z" fill="#021697" stroke="#021697" stroke-miterlimit="10" stroke-linecap="round" stroke-linejoin="round"/>
<path d="M154.28 226.765H38.7127L3.5293 137.72H116.123L154.28 226.765Z" fill="white" stroke="#021697" stroke-miterlimit="10" stroke-linecap="round" stroke-linejoin="round"/>
<path d="M71.2948 192.136C74.6343 192.136 77.3415 188.925 77.3415 184.963C77.3415 181.002 74.6343 177.79 71.2948 177.79C67.9553 177.79 65.248 181.002 65.248 184.963C65.248 188.925 67.9553 192.136 71.2948 192.136Z" fill="white" stroke="#021697" stroke-miterlimit="10" stroke-linecap="round" stroke-linejoin="round"/>
<path d="M154.28 226.765H174.923" stroke="#021697" stroke-miterlimit="10" stroke-linecap="round" stroke-linejoin="round"/>
<path d="M109.243 23.4458L130.306 48.0074L135.669 13.2354L109.243 23.4458Z" fill="white" stroke="#021697" stroke-miterlimit="10" stroke-linecap="round" stroke-linejoin="round"/>
<path d="M135.5 41C141.299 41 146 36.299 146 30.5C146 24.701 141.299 20 135.5 20C129.701 20 125 24.701 125 30.5C125 36.299 129.701 41 135.5 41Z" fill="#FF9C9F" stroke="#021697" stroke-miterlimit="10" stroke-linecap="round" stroke-linejoin="round"/>
<path d="M88.2881 137.72C88.2881 137.72 96.8369 105.991 101.424 106.644C106.011 107.297 103.092 115.212 103.092 115.212C103.092 115.212 121.649 107.633 122.825 112.585C123.709 116.295 110.494 120.406 110.494 120.406C110.494 120.406 122.145 116.617 122.379 119.263C122.65 122.326 112.291 124.042 110.598 125.229C110.598 125.229 119.914 121.534 120.386 123.528C120.84 125.467 110.181 129.434 110.181 129.434C110.181 129.434 116.286 126.872 116.437 128.771C116.595 130.765 111.328 132.526 109.243 132.773C107.158 133.021 107.784 137.72 107.784 137.72H88.2881Z" fill="white" stroke="#021697" stroke-miterlimit="10" stroke-linecap="round" stroke-linejoin="round"/>
<path d="M165.122 164.805L169.501 158.126" stroke="#021697" stroke-miterlimit="10" stroke-linecap="round" stroke-linejoin="round"/>
<path d="M194.335 126.634C194.335 126.634 197.229 123.003 196.499 119.54C195.769 116.077 191.182 111.872 191.807 110.017C192.433 108.162 198.801 109.567 199.843 111.793C200.886 114.019 206.249 96.4134 210.306 98.9709C212.37 100.272 205.777 111.872 205.777 111.872C205.777 111.872 215.994 96.8437 219.33 100.435C221.103 102.345 212.554 112.367 212.554 112.367C212.554 112.367 225.356 99.8464 229.043 103.448C231.841 106.183 217.483 114.44 218.705 115.954C219.08 116.419 234.184 103.463 236.499 108.286C237.675 110.73 229.626 115.39 223.605 122.177C217.041 129.578 212.012 138.537 212.012 138.537L194.335 126.634Z" fill="white" stroke="#021697" stroke-miterlimit="10" stroke-linecap="round" stroke-linejoin="round"/>
</svg>
