<svg width="240" height="240" viewBox="0 0 240 240" fill="none" xmlns="http://www.w3.org/2000/svg">
<path d="M236.814 20.6564L152.212 20.7769L152.3 82.5152L236.902 82.3947L236.814 20.6564Z" fill="white" stroke="#021697" stroke-miterlimit="10"/>
<path d="M11.251 73.9274C11.7771 63.0689 24.2538 35.3952 53.3496 45.3229C93.8153 59.13 48.5173 168.184 97.5283 174.074C145.554 179.844 151.697 137.217 155.884 118.324H166.07C166.308 137.403 158.023 192.13 97.9006 187.104C33.293 181.703 80.3558 70.0506 49.2247 57.1742C36.7182 52.0019 24.2539 60.7309 22.9112 74.3592" fill="#FF9C9F"/>
<path d="M11.251 73.9274C11.7771 63.0689 24.2538 35.3952 53.3496 45.3229C93.8153 59.13 48.5173 168.184 97.5283 174.074C145.554 179.844 151.697 137.217 155.884 118.324H166.07C166.308 137.403 158.023 192.13 97.9006 187.104C33.293 181.703 80.3558 70.0506 49.2247 57.1742C36.7182 52.0019 24.2539 60.7309 22.9112 74.3592" stroke="#021697" stroke-miterlimit="10" stroke-linecap="round" stroke-linejoin="round"/>
<path d="M95.8085 58.6857C97.4069 58.6634 101.44 60.4082 103.418 58.8247C105.396 57.2412 104.071 55.0075 104.232 52.9375C104.525 49.1674 101.537 42.7441 96.3248 42.7441C90.177 42.7441 89.6284 47.4921 87.7297 47.4921C85.3049 47.4921 79.5667 55.8215 83.724 58.9388C86.335 60.8971 87.2384 56.7746 89.1544 58.4722C91.1996 60.2915 94.1432 58.7105 95.8085 58.6857Z" fill="#021697" stroke="#021697" stroke-miterlimit="10" stroke-linecap="round" stroke-linejoin="round"/>
<path d="M199.817 65.6431C205.703 65.6431 210.474 60.8716 210.474 54.9856C210.474 49.0997 205.703 44.3281 199.817 44.3281C193.931 44.3281 189.159 49.0997 189.159 54.9856C189.159 60.8716 193.931 65.6431 199.817 65.6431Z" fill="white" stroke="#021697" stroke-miterlimit="10" stroke-linecap="round" stroke-linejoin="round"/>
<path d="M82.0785 102.035L109.814 103.152L108.231 76.0692L113.721 79.2659L120.174 68.6556C120.174 68.6556 106.833 60.2939 96.176 60.2939C96.176 60.2939 94.2674 61.2718 92.7783 60.2939C85.938 61.5051 81.3315 64.6671 70.7188 75.3718C77.3257 82.4925 80.3511 85.6098 80.3511 85.6098L83.2823 82.7704L82.0785 102.035Z" fill="white" stroke="#021697" stroke-miterlimit="10" stroke-linecap="round" stroke-linejoin="round"/>
<path d="M70.7223 75.3694L65.324 81.2789L38.797 64.0616C38.797 64.0616 36.3771 59.408 35.0741 59.6413C33.7711 59.8746 35.0741 63.9698 35.0741 63.9698C35.0741 63.9698 25.4888 59.8274 24.7442 61.6417C24.0989 63.2153 31.3512 64.9924 31.3512 64.9924C31.3512 64.9924 22.369 62.0835 21.9099 64.213C21.4805 66.2085 31.0708 67.7845 31.0708 67.7845C31.0708 67.7845 20.664 65.8834 20.391 67.9484C20.0882 70.2293 29.3955 69.4599 29.3955 69.4599C29.3955 69.4599 22.2995 71.1129 22.5304 73.019C22.714 74.528 29.4873 72.3439 32.7461 74.2053C36.0049 76.0668 66.1581 98.9627 66.1581 98.9627L80.3523 85.6074L70.7223 75.3694Z" fill="white" stroke="#021697" stroke-miterlimit="10" stroke-linecap="round" stroke-linejoin="round"/>
<path d="M82.0783 102.036L52.017 141.499L24.2539 162.461L41.8956 183.061L71.4679 161.975L85.3668 142.491L85.9873 153.784L71.5449 195.804L99.1293 199.112L116.143 156.763L109.814 103.153L82.0783 102.036Z" fill="#021697" stroke="#021697" stroke-miterlimit="10" stroke-linecap="round" stroke-linejoin="round"/>
<path d="M96.4109 128.344L85.3662 142.491" stroke="#021697" stroke-miterlimit="10" stroke-linecap="round" stroke-linejoin="round"/>
<path d="M23.3976 161.461L14.9268 167.326L31.5409 191.386L45.0377 186.732L23.3976 161.461Z" stroke="#021697" stroke-miterlimit="10" stroke-linecap="round" stroke-linejoin="round"/>
<path d="M15.9984 168.875L3.96094 178.107L22.9478 208.139L27.9117 192.503L30.9992 190.601L15.9984 168.875Z" fill="white" stroke="#021697" stroke-miterlimit="10" stroke-linecap="round" stroke-linejoin="round"/>
<path d="M69.872 195.603L101.437 199.39L96.4114 212.42L67.9336 202.368L69.872 195.603Z" stroke="#021697" stroke-miterlimit="10" stroke-linecap="round" stroke-linejoin="round"/>
<path d="M69.1616 202.802L94.1001 211.603L91.5709 218.687L103.608 231.717L63.2793 218.563L69.1616 202.802Z" fill="white" stroke="#021697" stroke-miterlimit="10" stroke-linecap="round" stroke-linejoin="round"/>
<path d="M22.9114 74.3571C20.7943 91.7854 39.0812 111.179 80.356 125.302C134.758 143.916 140.901 185.613 153.372 218.561C154.02 220.271 142.231 222.979 141.831 221.911C123.403 172.769 111.49 150.573 77.6383 138.054C14.52 114.711 9.60567 84.4736 11.2487 73.9253" fill="white"/>
<path d="M22.9114 74.3571C20.7943 91.7854 39.0812 111.179 80.356 125.302C134.758 143.916 140.901 185.613 153.372 218.561C154.02 220.271 142.231 222.979 141.831 221.911C123.403 172.769 111.49 150.573 77.6383 138.054C14.52 114.711 9.60567 84.4736 11.2487 73.9253" stroke="#021697" stroke-miterlimit="10" stroke-linecap="round" stroke-linejoin="round"/>
<path d="M155.886 118.322L161.259 102.261L166.072 118.322H155.886Z" fill="white" stroke="#021697" stroke-miterlimit="10" stroke-linecap="round" stroke-linejoin="round"/>
<path d="M159.358 107.851L160.321 108.302L161.252 107.434L161.873 108.302L162.92 107.803L161.26 102.261L159.358 107.851Z" fill="#021697" stroke="#021697" stroke-miterlimit="10" stroke-linecap="round" stroke-linejoin="round"/>
<path d="M173.485 133.459L184.52 83.4478" stroke="#021697" stroke-miterlimit="10" stroke-linecap="round" stroke-linejoin="round"/>
<path d="M203.134 81.6489L215.792 133.46" stroke="#021697" stroke-miterlimit="10" stroke-linecap="round" stroke-linejoin="round"/>
<path d="M198.873 58.8946L223.987 40.5853L236.856 50.5429L236.901 82.3961L152.299 82.5153L152.257 52.8833L173.639 36.3809L210.702 69.4503" fill="#B3B7F0"/>
<path d="M198.873 58.8946L223.987 40.5853L236.856 50.5429L236.901 82.3961L152.299 82.5153L152.257 52.8833L173.639 36.3809L210.702 69.4503" stroke="#021697" stroke-miterlimit="10" stroke-linecap="round" stroke-linejoin="round"/>
<path d="M188.176 42.6548L185.392 39.0386" stroke="#021697" stroke-miterlimit="10" stroke-linecap="round" stroke-linejoin="round"/>
<path d="M195.371 39.766L194.222 35.3481" stroke="#021697" stroke-miterlimit="10" stroke-linecap="round" stroke-linejoin="round"/>
<path d="M202.81 39.8478L204.108 35.4722" stroke="#021697" stroke-miterlimit="10" stroke-linecap="round" stroke-linejoin="round"/>
<path d="M209.833 42.8089L212.948 39.4707" stroke="#021697" stroke-miterlimit="10" stroke-linecap="round" stroke-linejoin="round"/>
<path d="M45.0319 31.8235C52.8451 31.8235 59.1789 25.4896 59.1789 17.6764C59.1789 9.86316 52.8451 3.5293 45.0319 3.5293C37.2186 3.5293 30.8848 9.86316 30.8848 17.6764C30.8848 25.4896 37.2186 31.8235 45.0319 31.8235Z" fill="#B3B7F0" stroke="#021697" stroke-miterlimit="10" stroke-linecap="round" stroke-linejoin="round"/>
<path d="M56.1714 8.74359C60.3039 8.30925 63.2723 8.94215 64.0566 10.7391C65.578 14.2262 58.2935 20.7686 47.7849 25.3528C37.2764 29.9369 27.5249 30.8279 26.0034 27.3433C25.1422 25.3677 27.1053 22.4117 30.8829 19.3862" stroke="#021697" stroke-miterlimit="10" stroke-linecap="round" stroke-linejoin="round"/>
<path d="M92.7821 56.5214C93.2785 57.3231 92.7821 60.2915 92.7821 60.2915C92.7821 60.2915 93.6731 60.7854 94.3407 60.7234C95.0084 60.6613 95.666 60.2915 95.666 60.2915V56.4296C95.666 56.4296 100.484 54.1264 98.7263 51.905C97.329 50.1379 93.7103 52.8928 92.8739 53.1733C92.0374 53.4538 90.6624 52.4957 90.2058 53.4364C89.6647 54.5508 92.2535 55.6677 92.7821 56.5214Z" fill="white" stroke="#021697" stroke-miterlimit="10" stroke-linecap="round" stroke-linejoin="round"/>
<path d="M151.387 170.85C155.362 170.85 158.585 167.627 158.585 163.652C158.585 159.677 155.362 156.455 151.387 156.455C147.412 156.455 144.189 159.677 144.189 163.652C144.189 167.627 147.412 170.85 151.387 170.85Z" fill="#B3B7F0" stroke="#021697" stroke-miterlimit="10" stroke-linecap="round" stroke-linejoin="round"/>
<path d="M120.176 68.6531L133.779 77.7419C133.779 77.7419 154.161 65.7815 155.186 64.4784C156.211 63.1754 157.606 59.5915 158.77 59.6386C159.934 59.6858 158.77 64.3841 158.77 64.3841C158.77 64.3841 168.355 61.2196 169.472 63.2672C167.472 63.8728 162.493 65.4538 162.493 65.4538C162.493 65.4538 170.961 62.8478 172.034 64.3841C173.106 65.9204 162.632 68.0127 162.632 68.0127C162.632 68.0127 172.45 65.0815 173.381 67.221C174.312 69.3604 164.352 69.8742 164.352 69.8742C164.352 69.8742 172.728 69.4547 172.589 70.6659C172.451 71.8771 157.976 71.83 134.663 91.8394C130.382 89.2805 113.723 79.2584 113.723 79.2584L120.176 68.6531Z" fill="white" stroke="#021697" stroke-miterlimit="10" stroke-linecap="round" stroke-linejoin="round"/>
</svg>
