<svg width="386" height="415" viewBox="0 0 386 415" fill="none" xmlns="http://www.w3.org/2000/svg">
    <path d="M162.721 164.959C162.721 164.959 189.167 139.227 189.638 140.98C190.545 144.381 192.371 150.23 192.371 150.23L221.568 140.137C221.568 140.137 211.418 94.0821 206.163 88.6875" stroke="#00021F" stroke-width="1.56676" stroke-miterlimit="10" stroke-linecap="round" stroke-linejoin="round"/>
    <path d="M303.578 183.612C304.093 178.28 285.198 181.325 285.198 181.325C285.198 181.325 302.816 191.518 303.578 183.612Z" fill="white" stroke="#00021F" stroke-width="1.56676" stroke-miterlimit="10" stroke-linecap="round" stroke-linejoin="round"/>
    <path d="M221.573 140.131L226.693 162.196C226.693 162.196 289.422 180.446 295.304 185.349C301.186 190.257 311.975 196.98 309.062 200.549C307.186 202.846 286.694 188.488 286.694 188.488C286.694 188.488 307.975 202.024 304.967 205.954C302.144 209.648 284.801 194.38 284.801 194.38C284.801 194.38 301.864 208.146 299.085 211.354C296.425 214.43 282.28 199.68 282.28 199.68C282.28 199.68 288.789 207.136 287.534 209.098C286.28 211.061 271.569 197.127 267.788 195.364C264.007 193.6 200.095 177.118 200.095 177.118L192.376 150.24L221.573 140.131Z" fill="white" stroke="#00021F" stroke-width="1.56676" stroke-miterlimit="10" stroke-linecap="round" stroke-linejoin="round"/>
    <path d="M185.86 126.093L189.636 140.979" stroke="#00021F" stroke-width="1.56676" stroke-miterlimit="10" stroke-linecap="round" stroke-linejoin="round"/>
    <path d="M179.558 238.562L190.47 307.174L134.676 343.9L94.8916 315.106L125.982 290.949C125.982 290.949 92.0068 232.064 93.6873 200.146C124.481 221.526 179.558 238.562 179.558 238.562Z" fill="#00167A" stroke="#260750" stroke-width="1.56676" stroke-miterlimit="10" stroke-linecap="round" stroke-linejoin="round"/>
    <path d="M146.228 232.31L160.344 299.185L114.706 328.936" stroke="white" stroke-width="0.522254" stroke-miterlimit="10"/>
    <path d="M91.7878 312.887L143.851 350.56L117.82 361.81L68.501 333.293L91.7878 312.887Z" stroke="#00021F" stroke-width="1.56676" stroke-miterlimit="10" stroke-linecap="round" stroke-linejoin="round"/>
    <path d="M72.5406 335.627L52.7773 351.147L106.174 389.835L105.334 365.865L113.989 359.597L72.5406 335.627Z" fill="white" stroke="#00021F" stroke-width="1.56676" stroke-miterlimit="10" stroke-linecap="round" stroke-linejoin="round"/>
    <path d="M93.6875 200.151C132.615 228.406 227.454 252.846 227.454 252.846L247.301 349.493L298.457 337.584L292.575 236.757C280.391 222.237 177.345 164.126 138.978 157.848L93.6875 200.151Z" fill="#00167A" stroke="#260750" stroke-width="1.56676" stroke-miterlimit="10" stroke-linecap="round" stroke-linejoin="round"/>
    <path d="M1 382.347C1 382.347 8.32723 390.619 11.8172 390.588C98.864 389.834 289.646 388.788 376.81 387.579C379.695 387.537 385 379.992 385 379.992" stroke="#00021F" stroke-width="1.56676" stroke-miterlimit="10" stroke-linecap="round" stroke-linejoin="round"/>
    <path d="M116.136 413.5C123.172 413.5 128.875 408.173 128.875 401.601C128.875 395.03 123.172 389.703 116.136 389.703C109.1 389.703 103.396 395.03 103.396 401.601C103.396 408.173 109.1 413.5 116.136 413.5Z" stroke="#00021F" stroke-width="1.56676" stroke-miterlimit="10" stroke-linecap="round" stroke-linejoin="round"/>
    <path d="M315.067 412.47C322.102 412.47 327.805 407.142 327.805 400.571C327.805 394 322.102 388.673 315.067 388.673C308.032 388.673 302.328 394 302.328 400.571C302.328 407.142 308.032 412.47 315.067 412.47Z" stroke="#00021F" stroke-width="1.56676" stroke-miterlimit="10" stroke-linecap="round" stroke-linejoin="round"/>
    <path d="M241.598 350.822L306.859 335.627L305.459 357.886L246.639 366.781L241.598 350.822Z" stroke="#00021F" stroke-width="1.56676" stroke-miterlimit="10" stroke-linecap="round" stroke-linejoin="round"/>
    <path d="M299.119 358.843V367.696L329.128 388.134L254.484 388.589L250.159 366.247L299.119 358.843Z" fill="white" stroke="#00021F" stroke-width="1.56676" stroke-miterlimit="10" stroke-linecap="round" stroke-linejoin="round"/>
    <path d="M216.474 82.5335C221.551 82.5335 225.666 78.0966 225.666 72.6234C225.666 67.1502 221.551 62.7134 216.474 62.7134C211.397 62.7134 207.281 67.1502 207.281 72.6234C207.281 78.0966 211.397 82.5335 216.474 82.5335Z" fill="white" stroke="#00021F" stroke-width="1.56676" stroke-miterlimit="10" stroke-linecap="round" stroke-linejoin="round"/>
    <path d="M130.777 122.304C130.777 122.304 172.813 98.2303 214.85 102.353" stroke="#00021F" stroke-width="1.56676" stroke-miterlimit="10" stroke-linecap="round" stroke-linejoin="round"/>
    <path d="M135.198 126.428C135.198 126.428 169.145 101.72 215.691 107.518" stroke="#00021F" stroke-width="1.56676" stroke-miterlimit="10" stroke-linecap="round" stroke-linejoin="round"/>
    <path d="M151.269 146.368C151.269 146.368 172.813 148.33 186.56 145.061" stroke="#00021F" stroke-width="1.56676" stroke-miterlimit="10" stroke-linecap="round" stroke-linejoin="round"/>
    <path d="M146.229 151.076C146.229 151.076 168.042 153.399 183.621 149.246" stroke="#00021F" stroke-width="1.56676" stroke-miterlimit="10" stroke-linecap="round" stroke-linejoin="round"/>
    <path d="M125.539 93.2452L102.387 78.522L81.6843 106.817L104.836 121.54L125.539 93.2452Z" fill="#6C76FF" stroke="#00021F" stroke-width="1.56676" stroke-miterlimit="10" stroke-linecap="round" stroke-linejoin="round"/>
    <path d="M134.373 98.8957L125.524 93.2583L104.848 121.57L113.697 127.208L134.373 98.8957Z" fill="#00021F" stroke="#00021F" stroke-width="1.56676" stroke-miterlimit="10" stroke-linecap="round" stroke-linejoin="round"/>
    <path d="M112.982 92.3761L98.8398 83.3657L81.7057 106.828L95.8479 115.838L112.982 92.3761Z" fill="white" stroke="#00021F" stroke-width="1.56676" stroke-miterlimit="10" stroke-linecap="round" stroke-linejoin="round"/>
    <path d="M206.167 88.6816C208.845 87.9753 207.288 85.9974 210.996 80.2471C214.777 74.3816 229.986 69.683 229.975 65.3977C229.947 56.0266 207.091 41.3289 184.46 54.4098C181.239 56.2725 171.425 55.7963 170.472 59.82C168.949 66.2453 174.556 63.9692 176.354 68.5004C179.066 75.3339 186.908 78.6041 191.182 80.4354C196.112 82.5545 197.546 90.9525 206.167 88.6816Z" fill="#00021F" stroke="#00021F" stroke-width="1.56676" stroke-miterlimit="10" stroke-linecap="round" stroke-linejoin="round"/>
    <path d="M109.184 32.6943H71.584V61.1426H109.184V32.6943Z" stroke="#FF9C9F" stroke-width="1.56676" stroke-miterlimit="10" stroke-linecap="round" stroke-linejoin="round"/>
    <path d="M71.584 32.6943L90.4902 45.3828L109.184 32.6943H71.584Z" stroke="#FF9C9F" stroke-width="1.56676" stroke-miterlimit="10" stroke-linecap="round" stroke-linejoin="round"/>
    <path d="M44.2741 15.8208H1V50.7467H44.2741V15.8208Z" fill="#6C76FF" stroke="#00021F" stroke-width="1.56676" stroke-miterlimit="10" stroke-linecap="round" stroke-linejoin="round"/>
    <path d="M22.6343 22.2983H1V34.3641H22.6343V22.2983Z" fill="white" stroke="#00021F" stroke-width="1.56676" stroke-miterlimit="10" stroke-linecap="round" stroke-linejoin="round"/>
    <path d="M1.49023 40.3506H15.4948" stroke="#00021F" stroke-width="1.56676" stroke-miterlimit="10" stroke-linecap="round" stroke-linejoin="round"/>
    <path d="M1.49023 44.4683H9.12546" stroke="#00021F" stroke-width="1.56676" stroke-miterlimit="10" stroke-linecap="round" stroke-linejoin="round"/>
    <path d="M44.2736 15.8208H31.8096V50.2235H44.2736V15.8208Z" fill="#00021F" stroke="#00021F" stroke-width="1.56676" stroke-miterlimit="10" stroke-linecap="round" stroke-linejoin="round"/>
    <path d="M346.319 126.715L301.645 99.4424L276.415 135.499L321.09 162.771L346.319 126.715Z" fill="#6C76FF" stroke="#00021F" stroke-width="1.56676" stroke-miterlimit="10" stroke-linecap="round" stroke-linejoin="round"/>
    <path d="M319.308 119.767L296.969 106.13L288.253 118.587L310.592 132.224L319.308 119.767Z" fill="white" stroke="#00021F" stroke-width="1.56676" stroke-miterlimit="10" stroke-linecap="round" stroke-linejoin="round"/>
    <path d="M283.948 124.659L298.911 133.795" stroke="#00021F" stroke-width="1.56676" stroke-miterlimit="10" stroke-linecap="round" stroke-linejoin="round"/>
    <path d="M280.974 128.913L289.36 134.036" stroke="#00021F" stroke-width="1.56676" stroke-miterlimit="10" stroke-linecap="round" stroke-linejoin="round"/>
    <path d="M333.586 118.78L308.357 154.836L321.225 162.691L346.454 126.635L333.586 118.78Z" fill="#00021F" stroke="#00021F" stroke-width="1.56676" stroke-miterlimit="10" stroke-linecap="round" stroke-linejoin="round"/>
    <path d="M153.961 143.823L83.3242 77.9697L16.5575 140.216L87.1939 206.07L153.961 143.823Z" fill="#D4D6FF" stroke="#00021F" stroke-width="1.56676" stroke-miterlimit="10" stroke-linecap="round" stroke-linejoin="round"/>
    <path d="M153.895 143.884L132.387 123.794L65.6826 186.098L87.1911 206.188L153.895 143.884Z" fill="#000ECB" stroke="#00021F" stroke-width="1.56676" stroke-miterlimit="10" stroke-linecap="round" stroke-linejoin="round"/>
    <path d="M100.118 128.352L51.1807 82.7526L83.3351 77.9858L132.396 123.816L100.118 128.352Z" fill="#D4D6FF" stroke="#00021F" stroke-width="1.56676" stroke-miterlimit="10" stroke-linecap="round" stroke-linejoin="round"/>
    <path d="M51.002 54.6714C51.002 54.6714 62.7602 61.9286 65.4883 66.4442" stroke="#00021F" stroke-width="1.56676" stroke-miterlimit="10" stroke-linecap="round" stroke-linejoin="round"/>
    <path d="M95.5305 69.002C95.5305 69.002 93.598 75.5005 93.2227 77.9858" stroke="#00021F" stroke-width="1.56676" stroke-miterlimit="10" stroke-linecap="round" stroke-linejoin="round"/>
    <path d="M145.734 30.7329C145.734 30.7329 127.595 46.1108 124.307 51.9239" stroke="#00021F" stroke-width="1.56676" stroke-miterlimit="10" stroke-linecap="round" stroke-linejoin="round"/>
    <path d="M175.77 82.9804L151.751 48.0708L120.794 66.5835L144.812 101.493L175.77 82.9804Z" fill="#D4D6FF" stroke="#00021F" stroke-width="1.56676" stroke-miterlimit="10" stroke-linecap="round" stroke-linejoin="round"/>
    <path d="M165.686 79.7167L151.459 59L139.525 66.1499L153.752 86.8667L165.686 79.7167Z" fill="white" stroke="#00021F" stroke-width="1.56676" stroke-miterlimit="10" stroke-linecap="round" stroke-linejoin="round"/>
    <path d="M134.312 69.3013L140.418 78.1963" stroke="#00021F" stroke-width="1.56676" stroke-miterlimit="10" stroke-linecap="round" stroke-linejoin="round"/>
    <path d="M130.777 71.4199L135.634 78.4993" stroke="#00021F" stroke-width="1.56676" stroke-miterlimit="10" stroke-linecap="round" stroke-linejoin="round"/>
    <path d="M181.974 9.93408C181.974 9.93408 167.163 1.98614 161.595 7.1871C156.027 12.3881 179.291 23.3236 174.619 27.6926C169.947 32.0564 150.329 18.7663 148.189 13.4659" stroke="#00167A" stroke-width="1.56676" stroke-miterlimit="10" stroke-linecap="round" stroke-linejoin="round"/>
    <path d="M178.718 1.5L154.558 24.0619" stroke="#00167A" stroke-width="1.56676" stroke-miterlimit="10" stroke-linecap="round" stroke-linejoin="round"/>
    <path d="M183.233 3.55566L156.765 28.2785" stroke="#00167A" stroke-width="1.56676" stroke-miterlimit="10" stroke-linecap="round" stroke-linejoin="round"/>
    <path d="M192.146 205.802L262.628 245.783L274.229 324.372" stroke="white" stroke-width="0.522254" stroke-miterlimit="10"/>
</svg>