<svg width="458" height="468" viewBox="0 0 458 468" fill="none" xmlns="http://www.w3.org/2000/svg">
<path d="M96.5514 428.956C106.331 426.889 133.069 420.561 127.131 402.527C120.628 382.763 97.0888 383.325 85.4345 386.45C73.7801 389.578 53.3584 403.664 59.5808 419.357C66.3096 436.302 87.2688 430.912 96.5514 428.956Z" fill="white" stroke="#00167A" stroke-width="3" stroke-miterlimit="10" stroke-linecap="round" stroke-linejoin="round"/>
<path d="M114.165 426.613C121.656 426.613 127.729 420.562 127.729 413.098C127.729 405.634 121.656 399.583 114.165 399.583C106.673 399.583 100.601 405.634 100.601 413.098C100.601 420.562 106.673 426.613 114.165 426.613Z" fill="white" stroke="#00167A" stroke-width="3" stroke-miterlimit="10" stroke-linecap="round" stroke-linejoin="round"/>
<path d="M102.488 406.217C102.488 406.217 100.671 396.423 102.488 395.751C104.305 395.083 109.337 400.464 109.337 400.464C109.337 400.464 106.965 401.292 105.508 402.69C104.051 404.088 102.488 406.217 102.488 406.217Z" fill="white" stroke="#00167A" stroke-width="3" stroke-miterlimit="10" stroke-linecap="round" stroke-linejoin="round"/>
<path d="M123.775 403.561C123.775 403.561 134.75 402.008 135.048 404.539C135.345 407.071 127.573 411.058 127.573 411.058C127.573 411.058 126.951 407.814 125.841 406.217C124.73 404.619 123.775 403.561 123.775 403.561Z" fill="white" stroke="#00167A" stroke-width="3" stroke-miterlimit="10" stroke-linecap="round" stroke-linejoin="round"/>
<path d="M65.6179 398.53C65.6179 398.53 53.2086 410.049 56.3842 423.821C59.773 438.513 87.1323 448.333 98.8843 433.65C108.3 421.887 92.4576 415.338 87.6786 422.781C80.972 433.221 52.1693 434.017 65.6179 398.53Z" fill="#00167A" stroke="#00167A" stroke-width="3" stroke-miterlimit="10" stroke-linecap="round" stroke-linejoin="round"/>
<path d="M105.507 413.395C105.507 413.395 97.1709 412.054 92.0898 413.917" stroke="#00167A" stroke-width="3" stroke-miterlimit="10" stroke-linecap="round" stroke-linejoin="round"/>
<path d="M122.124 418.387C122.124 418.387 129.217 422.282 130.492 423.822" stroke="#00167A" stroke-width="3" stroke-miterlimit="10" stroke-linecap="round" stroke-linejoin="round"/>
<path d="M105.506 415.781C105.506 415.781 98.1467 415.63 93.1367 418.016" stroke="#00167A" stroke-width="3" stroke-miterlimit="10" stroke-linecap="round" stroke-linejoin="round"/>
<path d="M120.665 421.104C120.665 421.104 127.5 426.574 128.735 430.707" stroke="#00167A" stroke-width="3" stroke-miterlimit="10" stroke-linecap="round" stroke-linejoin="round"/>
<path d="M122.124 273.137L350.09 270.906" stroke="#00167A" stroke-width="3" stroke-miterlimit="10" stroke-linecap="round" stroke-linejoin="round"/>
<path d="M283.739 395.694L335.562 395.079L331.369 410.652L283.739 410.767V395.694Z" fill="white" stroke="#00167A" stroke-width="3" stroke-miterlimit="10" stroke-linecap="round" stroke-linejoin="round"/>
<path d="M160.624 204.569C160.624 204.569 144.764 226.683 148.353 244.553C151.937 262.418 172.545 274.261 204.39 273.141C201.699 299.941 206.562 396.437 206.562 396.437L283.737 395.694L328.569 395.074V265.317L266.051 217.253C266.047 217.257 236.236 205.335 160.624 204.569Z" fill="#00167A" stroke="#00167A" stroke-width="3" stroke-miterlimit="10" stroke-linecap="round" stroke-linejoin="round"/>
<path d="M240.701 228.023L280.599 264.206L283.739 395.693" stroke="#00167A" stroke-width="3" stroke-miterlimit="10" stroke-linecap="round" stroke-linejoin="round"/>
<path d="M200.354 396.49L294.198 395.693L290.613 410.74L205.142 411.058L200.354 396.49Z" fill="white" stroke="#00167A" stroke-width="3" stroke-miterlimit="10" stroke-linecap="round" stroke-linejoin="round"/>
<path d="M324.085 410.766V421.104L351.382 440.376L283.739 440.965V410.766H324.085Z" fill="white" stroke="#00167A" stroke-width="3" stroke-miterlimit="10" stroke-linecap="round" stroke-linejoin="round"/>
<path d="M207.078 411.058L283.737 410.766V422.108L310.866 440.642L207.767 441.868L207.078 411.058Z" fill="white" stroke="#00167A" stroke-width="3" stroke-miterlimit="10" stroke-linecap="round" stroke-linejoin="round"/>
<path d="M221.026 188.964L222.993 166.828L221.425 143.6L222.993 166.828L240.031 154.11C240.031 154.11 217.841 123.278 207.977 121.716C202.372 125.734 197.89 119.26 197.89 119.26C197.89 119.26 167.715 120.216 159.649 148.804C177.135 154.389 189.825 157.783 189.825 157.783L193.409 144.051L185.565 181.795L221.026 188.964Z" fill="white" stroke="#00167A" stroke-width="3" stroke-miterlimit="10" stroke-linecap="round" stroke-linejoin="round"/>
<path d="M159.644 148.8C159.644 148.8 148.944 197.201 151.041 200.776C153.133 204.348 211.431 216.115 226.674 216.659C241.917 217.203 237.4 194.665 232.777 192.063C228.149 189.46 185.564 181.791 185.564 181.791L189.823 157.779L159.644 148.8Z" fill="white" stroke="#00167A" stroke-width="3" stroke-miterlimit="10" stroke-linecap="round" stroke-linejoin="round"/>
<path d="M223.667 166.492L237.178 156.265L247.651 173.975L237.178 192.287L221.042 188.809L223.667 166.492Z" fill="white" stroke="#00167A" stroke-width="3" stroke-miterlimit="10" stroke-linecap="round" stroke-linejoin="round"/>
<path d="M224.227 121.822C234.03 118.525 230.148 100 224.898 92.5657C215.598 79.3868 192.733 81.6216 186.79 99.4914C185.494 103.386 177.526 105.094 180.626 111.329C182.793 115.684 191.498 113.418 191.498 113.418C191.498 113.418 218.36 123.796 224.227 121.822Z" fill="#00167A" stroke="#00167A" stroke-width="3" stroke-miterlimit="10" stroke-linecap="round" stroke-linejoin="round"/>
<path d="M197.888 119.256L200.242 112.556C200.242 112.556 197.777 109.206 197.888 107.307C197.999 105.409 194.188 106.75 195.196 102.842C196.205 98.9346 201.135 103.289 203.604 104.294C206.073 105.298 210.639 102.904 213.02 102.732C214.641 102.612 216.284 104.174 216.751 105.21C217.692 107.312 216.382 110.326 213.917 111.777C211.452 113.229 207.752 113.454 207.752 113.454L207.384 122.106C207.384 122.106 206.864 123.929 202.041 122.602C197.213 121.265 197.888 119.256 197.888 119.256Z" fill="white" stroke="#00167A" stroke-width="3" stroke-miterlimit="10" stroke-linecap="round" stroke-linejoin="round"/>
<path d="M9.4873 217.677H455.999" stroke="#00167A" stroke-width="3" stroke-miterlimit="10" stroke-linecap="round" stroke-linejoin="round"/>
<path d="M59.5859 456.95L122.121 217.677" stroke="#00167A" stroke-width="3" stroke-miterlimit="10"/>
<path d="M66.3115 217.677L148.349 467" stroke="#00167A" stroke-width="3" stroke-miterlimit="10"/>
<path d="M345.38 217.677L428.763 467" stroke="#00167A" stroke-width="3" stroke-miterlimit="10"/>
<path d="M340.002 453.6L402.537 217.677" stroke="#00167A" stroke-width="3" stroke-miterlimit="10"/>
<path d="M34.6301 188.044C34.6301 188.044 26.2624 167.125 14.457 161.766" stroke="#00167A" stroke-width="3" stroke-miterlimit="10" stroke-linecap="round" stroke-linejoin="round"/>
<path d="M-0.000365573 156.079C-0.000365573 156.079 12.9043 166.937 15.07 161.911C18.0251 155.045 -0.000365573 156.079 -0.000365573 156.079Z" fill="#BF131C"/>
<path d="M26.1084 172.546C22.9017 165.634 13.5791 178.777 13.5791 178.777C13.5791 178.777 27.8539 176.308 26.1084 172.546Z" fill="#BF131C"/>
<path d="M41.0928 135.669C42.7761 156.774 47.4796 188.438 47.4796 188.438L41.0928 135.669Z" fill="#00167A"/>
<path d="M41.0928 135.669C42.7761 156.774 47.4796 188.438 47.4796 188.438" stroke="#00167A" stroke-width="3" stroke-miterlimit="10" stroke-linecap="round" stroke-linejoin="round"/>
<path d="M40.0585 115.64C42.7412 115.374 50.678 138.926 40.8447 137.794C32.1261 136.789 40.0585 115.64 40.0585 115.64Z" fill="#BF131C"/>
<path d="M42.242 147.786C42.242 147.786 37.6184 140.028 29.9969 139.431C22.3754 138.834 21.1807 139.431 21.1807 139.431" stroke="#00167A" stroke-width="3" stroke-miterlimit="10" stroke-linecap="round" stroke-linejoin="round"/>
<path d="M22.885 139.612C21.517 130.686 8.16602 141.4 8.16602 141.4C8.16602 141.4 23.8177 145.715 22.885 139.612Z" fill="#BF131C"/>
<path d="M43.416 158.044C43.416 158.044 47.1024 150.645 56.3761 145.534C63.3981 141.661 67.3598 140.515 67.3598 140.515" stroke="#00167A" stroke-width="3" stroke-miterlimit="10" stroke-linecap="round" stroke-linejoin="round"/>
<path d="M67.8086 140.515C64.8906 129.832 89.625 136.51 89.625 136.51C89.625 136.51 69.8828 148.109 67.8086 140.515Z" fill="#BF131C"/>
<path d="M61.2655 188.443C61.2655 188.443 60.8169 174.79 65.7469 170.922" stroke="#00167A" stroke-width="3" stroke-miterlimit="10" stroke-linecap="round" stroke-linejoin="round"/>
<path d="M82.9542 158.394C82.9542 158.394 59.2102 163.16 65.3572 170.918C69.5055 176.153 82.9542 158.394 82.9542 158.394Z" fill="#BF131C"/>
<path d="M55.3857 164.652C60.933 162.059 62.11 178.163 62.11 178.163C62.11 178.163 49.9538 167.192 55.3857 164.652Z" fill="#BF131C"/>
<g filter="url(#filter0_b)">
<path d="M69.0286 188H29.0117V216H69.0286V188Z" fill="#FF5A5F" fill-opacity="0.6"/>
</g>
<path d="M221.042 217.704L262.219 134.506H373.099L336.644 217.704H221.042Z" fill="white" stroke="#00167A" stroke-width="3" stroke-miterlimit="10" stroke-linecap="round" stroke-linejoin="round"/>
<path d="M307.273 172.1C307.273 172.1 303.014 170.945 299.989 173.069C298.679 173.989 294.544 177.202 296.707 179.879C298.87 182.561 302.903 180.216 304.475 177.87C306.043 175.525 307.273 172.1 307.273 172.1Z" fill="white" stroke="#00167A" stroke-width="3" stroke-miterlimit="10" stroke-linecap="round" stroke-linejoin="round"/>
<path d="M423.012 209.264L437.656 96.5489L371.27 60.5171" stroke="#00167A" stroke-width="3" stroke-miterlimit="10" stroke-linecap="round" stroke-linejoin="round"/>
<path d="M371.27 60.5171L339.176 74.0633L371.905 94.314L371.27 60.5171Z" fill="white" stroke="#00167A" stroke-width="3" stroke-miterlimit="10" stroke-linecap="round" stroke-linejoin="round"/>
<path d="M355.111 93.9427C359.798 93.9427 363.598 90.1565 363.598 85.4858C363.598 80.8152 359.798 77.0288 355.111 77.0288C350.423 77.0288 346.623 80.8152 346.623 85.4858C346.623 90.1565 350.423 93.9427 355.111 93.9427Z" fill="white" stroke="#00167A" stroke-width="3" stroke-miterlimit="10" stroke-linecap="round" stroke-linejoin="round"/>
<path d="M444.277 208.104H401.173V217.234H444.277V208.104Z" fill="white" stroke="#00167A" stroke-width="3" stroke-miterlimit="10" stroke-linecap="round" stroke-linejoin="round"/>
<path d="M301.21 78.0287L296.595 74.8999C296.595 74.8999 285.331 88.1894 288.805 90.9243C292.606 93.9203 301.21 78.0287 301.21 78.0287Z" fill="white" stroke="#00167A" stroke-width="3" stroke-miterlimit="10" stroke-linecap="round" stroke-linejoin="round"/>
<path d="M304.563 78.0993C310.333 78.0993 315.01 73.4392 315.01 67.6907C315.01 61.9422 310.333 57.2822 304.563 57.2822C298.794 57.2822 294.117 61.9422 294.117 67.6907C294.117 73.4392 298.794 78.0993 304.563 78.0993Z" fill="white" stroke="#00167A" stroke-width="3" stroke-miterlimit="10" stroke-linecap="round" stroke-linejoin="round"/>
<path d="M304.563 74.3644C307.983 74.3644 310.755 71.6024 310.755 68.1954C310.755 64.7883 307.983 62.0264 304.563 62.0264C301.144 62.0264 298.372 64.7883 298.372 68.1954C298.372 71.6024 301.144 74.3644 304.563 74.3644Z" fill="white" stroke="#00167A" stroke-width="3" stroke-miterlimit="10" stroke-linecap="round" stroke-linejoin="round"/>
<path d="M290.182 83.7324C290.182 83.7324 290.098 85.6399 291.528 87.1489C292.341 88.0075 294.011 88.4721 294.011 88.4721C294.011 88.4721 290.8 92.6762 288.783 90.8352C286.762 88.9898 290.182 83.7324 290.182 83.7324Z" fill="white" stroke="#00167A" stroke-width="3" stroke-miterlimit="10" stroke-linecap="round" stroke-linejoin="round"/>
<path d="M197.814 39.7451C205.283 39.7451 211.338 33.712 211.338 26.2698C211.338 18.8275 205.283 12.7944 197.814 12.7944C190.345 12.7944 184.29 18.8275 184.29 26.2698C184.29 33.712 190.345 39.7451 197.814 39.7451Z" fill="white" stroke="#00167A" stroke-width="3" stroke-miterlimit="10" stroke-linecap="round" stroke-linejoin="round"/>
<path d="M208.278 17.7373C213.781 18.5781 217.712 20.928 218.307 24.2692C219.266 29.6549 211.09 34.6202 200.204 36.5453C189.318 38.4704 179.835 36.6205 178.876 31.2348C178.343 28.23 180.612 25.0525 184.619 22.5035" stroke="#00167A" stroke-width="3" stroke-miterlimit="10" stroke-linecap="round" stroke-linejoin="round"/>
<path d="M217.537 7.65569C219.105 7.65569 220.375 6.38967 220.375 4.8279C220.375 3.26613 219.105 2 217.537 2C215.97 2 214.699 3.26613 214.699 4.8279C214.699 6.38967 215.97 7.65569 217.537 7.65569Z" fill="white" stroke="#00167A" stroke-width="3" stroke-miterlimit="10" stroke-linecap="round" stroke-linejoin="round"/>
<path d="M173.345 44.3998C174.912 44.3998 176.183 43.1338 176.183 41.572C176.183 40.0103 174.912 38.7441 173.345 38.7441C171.777 38.7441 170.507 40.0103 170.507 41.572C170.507 43.1338 171.777 44.3998 173.345 44.3998Z" fill="white" stroke="#00167A" stroke-width="3" stroke-miterlimit="10" stroke-linecap="round" stroke-linejoin="round"/>
<path d="M92.906 88.8044C99.1757 88.8044 104.258 83.7401 104.258 77.493C104.258 71.2459 99.1757 66.1816 92.906 66.1816C86.6363 66.1816 81.5537 71.2459 81.5537 77.493C81.5537 83.7401 86.6363 88.8044 92.906 88.8044Z" fill="white" stroke="#00167A" stroke-width="3" stroke-miterlimit="10" stroke-linecap="round" stroke-linejoin="round"/>
<path d="M96.0447 81.4356L89.9199 80.0195" stroke="#00167A" stroke-width="3" stroke-miterlimit="10" stroke-linecap="round" stroke-linejoin="round"/>
<path d="M98.8898 78.2362L95.2256 73.917" stroke="#00167A" stroke-width="3" stroke-miterlimit="10" stroke-linecap="round" stroke-linejoin="round"/>
<path d="M87.6022 78.2363C87.6022 78.2363 86.483 76.4484 87.2291 75.3332C87.9753 74.218 89.9207 75.3332 89.9207 75.3332C89.9207 75.3332 89.9207 72.355 90.9688 71.5363C91.7994 70.8857 93.8069 72.2045 93.8069 72.2045" stroke="#00167A" stroke-width="3" stroke-miterlimit="10" stroke-linecap="round" stroke-linejoin="round"/>
<path d="M104.64 79.1265C104.64 79.1265 107.256 80.0204 107.105 81.4365C106.954 82.8526 100.678 90.2962 99.2612 90.4467C97.8399 90.5972 96.6318 88.1853 96.6318 88.1853C96.6318 88.1853 100.523 86.6497 101.873 84.437C103.218 82.2198 104.64 79.1265 104.64 79.1265Z" fill="white" stroke="#00167A" stroke-width="3" stroke-miterlimit="10" stroke-linecap="round" stroke-linejoin="round"/>
<path d="M106.699 83.1045C106.699 83.1045 109.128 83.224 108.902 84.6401C108.675 86.0562 103.505 92.0217 101.875 91.2296C100.654 90.6322 100.543 89.6984 101.249 88.9992C102.408 87.853 106.699 83.1045 106.699 83.1045Z" fill="white" stroke="#00167A" stroke-width="3" stroke-miterlimit="10" stroke-linecap="round" stroke-linejoin="round"/>
<path d="M108.634 85.8525L112.298 89.1451C112.298 89.1451 109.673 92.7563 108.914 92.681C108.15 92.6058 104.694 90.2293 104.694 90.2293L108.634 85.8525Z" fill="white" stroke="#00167A" stroke-width="3" stroke-miterlimit="10" stroke-linecap="round" stroke-linejoin="round"/>
<path d="M121.114 66.1825C121.114 66.1825 131.871 52.1407 151.152 40.3071L121.114 66.1825Z" fill="white"/>
<path d="M121.114 66.1825C121.114 66.1825 131.871 52.1407 151.152 40.3071" stroke="#00167A" stroke-width="3" stroke-miterlimit="10" stroke-linecap="round" stroke-linejoin="round"/>
<path d="M128.327 67.2922C128.327 67.2922 135.278 56.8703 147.23 48.2319L128.327 67.2922Z" fill="white"/>
<path d="M128.327 67.2922C128.327 67.2922 135.278 56.8703 147.23 48.2319" stroke="#00167A" stroke-width="3" stroke-miterlimit="10" stroke-linecap="round" stroke-linejoin="round"/>
<path d="M242.345 29.5444C242.345 29.5444 261.621 31.0314 280.901 48.9012" stroke="#00167A" stroke-width="3" stroke-miterlimit="10" stroke-linecap="round" stroke-linejoin="round"/>
<path d="M249.779 37.8462C249.779 37.8462 263.454 40.975 277.125 52.2509" stroke="#00167A" stroke-width="3" stroke-miterlimit="10" stroke-linecap="round" stroke-linejoin="round"/>
<defs>
<filter id="filter0_b" x="-30.9883" y="128" width="160.017" height="148" filterUnits="userSpaceOnUse" color-interpolation-filters="sRGB">
<feFlood flood-opacity="0" result="BackgroundImageFix"/>
<feGaussianBlur in="BackgroundImage" stdDeviation="30"/>
<feComposite in2="SourceAlpha" operator="in" result="effect1_backgroundBlur"/>
<feBlend mode="normal" in="SourceGraphic" in2="effect1_backgroundBlur" result="shape"/>
</filter>
</defs>
</svg>
