<svg width="40" height="40" viewBox="0 0 40 40" fill="none" xmlns="http://www.w3.org/2000/svg">
<path fill-rule="evenodd" clip-rule="evenodd" d="M20 0.952393C14.8271 0.952393 14.1783 0.974415 12.1467 1.06698C10.1194 1.15953 8.73454 1.48156 7.52323 1.95239C6.27055 2.439 5.20835 3.09049 4.14942 4.14942C3.09049 5.20835 2.439 6.27055 1.95239 7.52323C1.48156 8.73484 1.15954 10.1194 1.06698 12.1467C0.974416 14.1783 0.952393 14.8271 0.952393 20C0.952393 25.1729 0.974416 25.8218 1.06698 27.8533C1.15954 29.8807 1.48156 31.2652 1.95239 32.4768C2.439 33.7295 3.09049 34.7917 4.14942 35.8506C5.20835 36.9096 6.27055 37.5607 7.52323 38.0476C8.73484 38.5185 10.1194 38.8405 12.1467 38.9331C14.1783 39.0256 14.8271 39.0476 20 39.0476C25.1729 39.0476 25.8218 39.0256 27.8533 38.9331C29.8807 38.8405 31.2652 38.5185 32.4768 38.0476C33.7295 37.5607 34.7917 36.9096 35.8506 35.8506C36.9096 34.7917 37.5607 33.7295 38.0476 32.4768C38.5185 31.2652 38.8405 29.8807 38.9331 27.8533C39.0256 25.8218 39.0476 25.1729 39.0476 20C39.0476 14.8271 39.0256 14.1783 38.9331 12.1467C38.8405 10.1194 38.5185 8.73484 38.0476 7.52323C37.5607 6.27055 36.9096 5.20835 35.8506 4.14942C34.7917 3.09049 33.7295 2.4393 32.4768 1.95239C31.2652 1.48156 29.8807 1.15953 27.8533 1.06698C25.8218 0.974415 25.1729 0.952393 20 0.952393Z" fill="url(#paint0_radial)"/>
<path fill-rule="evenodd" clip-rule="evenodd" d="M29.34 12.3744C29.34 13.3213 28.5724 14.0887 27.6258 14.0887C26.6791 14.0887 25.9115 13.3213 25.9115 12.3744C25.9115 11.4275 26.6791 10.6601 27.6258 10.6601C28.5726 10.6601 29.34 11.4275 29.34 12.3744ZM20.0001 24.7619C17.3702 24.7619 15.2382 22.63 15.2382 20.0001C15.2382 17.3702 17.3702 15.2382 20.0001 15.2382C22.63 15.2382 24.7619 17.3702 24.7619 20.0001C24.7619 22.63 22.63 24.7619 20.0001 24.7619ZM20.0001 12.6641C15.9485 12.6641 12.6641 15.9485 12.6641 20.0001C12.6641 24.0516 15.9485 27.336 20.0001 27.336C24.0516 27.336 27.336 24.0516 27.336 20.0001C27.336 15.9485 24.0516 12.6641 20.0001 12.6641ZM20.0001 8.28846C23.8146 8.28846 24.2664 8.30297 25.7726 8.37172C27.1655 8.43534 27.922 8.66793 28.4253 8.86369C29.092 9.12284 29.5679 9.43244 30.0679 9.93244C30.5679 10.4322 30.8775 10.9081 31.1367 11.5751C31.3322 12.0784 31.565 12.8349 31.6287 14.2278C31.6974 15.7342 31.7119 16.186 31.7119 20.0005C31.7119 23.815 31.6974 24.2668 31.6287 25.7731C31.565 27.1659 31.3324 27.9224 31.1367 28.4258C30.8775 29.0925 30.5679 29.5684 30.0679 30.0684C29.5682 30.5684 29.0923 30.878 28.4253 31.1371C27.922 31.3327 27.1655 31.5655 25.7726 31.6291C24.2664 31.6979 23.8146 31.7124 20.0001 31.7124C16.1853 31.7124 15.7336 31.6979 14.2273 31.6291C12.8344 31.5655 12.078 31.3329 11.5746 31.1371C10.9079 30.878 10.432 30.5684 9.93199 30.0684C9.43221 29.5686 9.12239 29.0927 8.86324 28.4258C8.66771 27.9224 8.43489 27.1659 8.37128 25.7731C8.30253 24.2666 8.28802 23.8148 8.28802 20.0005C8.28802 16.186 8.30253 15.7342 8.37128 14.2278C8.43489 12.8349 8.66748 12.0784 8.86324 11.5751C9.12239 10.9083 9.43199 10.4324 9.93199 9.93244C10.4318 9.43244 10.9077 9.12284 11.5746 8.86369C12.078 8.66815 12.8344 8.43534 14.2273 8.37172C15.7338 8.30297 16.1856 8.28846 20.0001 8.28846ZM20.0001 5.71436C16.1204 5.71436 15.6338 5.73087 14.1101 5.80029C12.5896 5.86971 11.551 6.11123 10.6425 6.46436C9.70297 6.82931 8.90632 7.31793 8.11212 8.11212C7.31793 8.90632 6.82931 9.70297 6.46436 10.6425C6.11123 11.5512 5.86971 12.5896 5.80029 14.1101C5.73087 15.6338 5.71436 16.1204 5.71436 20.0001C5.71436 23.8798 5.73087 24.3664 5.80029 25.89C5.86971 27.4106 6.11123 28.449 6.46436 29.3577C6.82931 30.2972 7.31793 31.0938 8.11212 31.888C8.90632 32.6822 9.70297 33.1706 10.6425 33.5358C11.5512 33.8889 12.5896 34.1304 14.1101 34.1999C15.6338 34.2693 16.1204 34.2858 20.0001 34.2858C23.8798 34.2858 24.3664 34.2693 25.89 34.1999C27.4106 34.1304 28.449 33.8889 29.3577 33.5358C30.2972 33.1706 31.0938 32.6822 31.888 31.888C32.6822 31.0938 33.1706 30.2972 33.5358 29.3577C33.8889 28.449 34.1304 27.4106 34.1999 25.89C34.2693 24.3664 34.2858 23.8798 34.2858 20.0001C34.2858 16.1204 34.2693 15.6338 34.1999 14.1101C34.1304 12.5896 33.8889 11.5512 33.5358 10.6425C33.1706 9.70297 32.6822 8.90632 31.888 8.11212C31.0938 7.31793 30.2972 6.82953 29.3577 6.46436C28.449 6.11123 27.4106 5.86971 25.89 5.80029C24.3664 5.73087 23.8798 5.71436 20.0001 5.71436Z" fill="white"/>
<defs>
<radialGradient id="paint0_radial" cx="0" cy="0" r="1" gradientUnits="userSpaceOnUse" gradientTransform="translate(6.64022 -5.43164) scale(48.6762)">
<stop stop-color="#FFB140"/>
<stop offset="0.2559" stop-color="#FF5445"/>
<stop offset="0.599" stop-color="#FC2B82"/>
<stop offset="1" stop-color="#8E40B7"/>
</radialGradient>
</defs>
</svg>
