<svg width="424" height="225" viewBox="0 0 424 225" fill="none" xmlns="http://www.w3.org/2000/svg">
<path d="M29.564 112.008C29.564 73.3926 47.2508 38.9285 74.9281 16.2928L53.427 0C20.8495 26.3788 0 66.7502 0 112.008C0 157.565 21.1075 198.154 54.0378 224.52L75.1181 207.887C47.3323 185.237 29.564 150.719 29.564 112.008Z" fill="#DFE4E9"/>
<path d="M394.436 112.008C394.436 73.3925 376.749 38.9285 349.058 16.2928L370.559 0C403.15 26.3788 424 66.7502 424 112.008C424 157.565 402.879 198.154 369.949 224.52L348.882 207.887C376.668 185.237 394.436 150.719 394.436 112.008Z" fill="#DFE4E9"/>
<g clip-path="url(#clip0)">
<path fill-rule="evenodd" clip-rule="evenodd" d="M165.285 88.2769L183.391 77.6081L183.382 77.5934L185.894 76.1227L189.072 74.1671L191.273 73.0895L214.318 86.1751C214.97 86.5592 215.562 87.0396 216.073 87.6061L218.045 89.7985C218.656 88.2146 219.778 86.856 221.267 85.9791L240.38 74.7177C242.134 73.6844 244.196 73.4351 246.098 73.971V51.4529C246.098 49.1642 247.287 47.0442 249.221 45.8863C251.153 44.7294 253.543 44.7034 255.499 45.8183L266.868 52.297C269.234 53.6454 270.703 56.1947 270.703 58.9605V88.8241C271.347 87.5291 272.353 86.4277 273.629 85.6754L292.737 74.4163C295.056 73.0499 297.91 73.0499 300.227 74.4231L319.217 85.6777C321.521 87.043 322.938 89.5572 322.938 92.2765V97.7367C322.938 100.453 321.521 102.968 319.22 104.333L307.757 111.13C307.312 111.393 306.843 111.598 306.363 111.742L311.536 114.773C313.5 115.924 314.712 118.062 314.712 120.374C314.712 122.712 313.467 124.871 311.465 126.006L299.981 132.522C297.696 133.818 294.919 133.801 292.649 132.48L273.663 121.433C272.106 120.527 270.946 119.096 270.348 117.429C269.789 119.21 268.599 120.749 266.967 121.712L250.484 131.433C257.412 137.426 251.066 146.986 244.909 146.986C244.542 146.986 244.18 146.962 243.825 146.916V160.537C243.825 163.795 242.117 166.825 239.352 168.456L222.022 178.676C217.865 180.311 216.03 180.57 211.688 178.67L206.356 175.448C203.418 173.724 202.933 173.192 199.372 171.402L199.22 171.326L194.345 168.458C191.575 166.827 189.869 163.793 189.869 160.531V139.302C189.869 137.416 190.44 135.606 191.457 134.102L189.114 134.443L188.517 133.332C188.293 133.229 188.072 133.114 187.856 132.986L185.363 131.516L185.151 131.391L168.849 121.779C168.003 121.28 167.261 120.616 166.665 119.825L166.184 119.189L166.18 122.201C166.178 124.484 164.988 126.601 163.062 127.758C161.099 128.937 158.666 128.945 156.698 127.776L145.333 121.133L145.298 121.111C143.023 119.73 141.614 117.236 141.614 114.533V102.1L139.641 100.94L137.667 102.1V114.535C137.667 117.241 136.264 119.729 133.987 121.111L133.951 121.134L122.598 127.771C120.631 128.958 118.187 128.955 116.223 127.766C114.289 126.613 113.107 124.497 113.104 122.209L113.062 91.9819C113.058 89.249 114.487 86.7178 116.808 85.3547L135.912 74.1319C136.963 73.5156 138.143 73.17 139.353 73.1247L139.447 73.1213H139.835L139.933 73.1247C141.146 73.17 142.332 73.5167 143.382 74.141L162.474 85.3547C163.676 86.0606 164.638 87.0792 165.285 88.2769Z" fill="#FEFEFE"/>
<path fill-rule="evenodd" clip-rule="evenodd" d="M216.855 175.038C216.197 175.038 215.542 174.862 214.965 174.522L208.949 170.886C208.05 170.373 208.489 170.192 208.785 170.087C209.984 169.659 210.227 169.562 211.505 168.821C211.64 168.742 211.815 168.771 211.953 168.853L216.575 171.653C216.742 171.745 216.978 171.745 217.134 171.653L235.154 161.034C235.321 160.937 235.43 160.739 235.43 160.537V139.307C235.43 139.095 235.321 138.907 235.15 138.801L217.137 128.191C216.97 128.09 216.748 128.09 216.582 128.191L198.572 138.801C198.398 138.903 198.287 139.1 198.287 139.303V160.531C198.287 160.734 198.395 160.928 198.567 161.024L203.501 163.935C206.18 165.303 207.818 163.691 207.818 162.07V141.118C207.818 140.817 208.048 140.587 208.341 140.587H210.624C210.908 140.587 211.143 140.817 211.143 141.117V162.079C211.143 165.726 209.194 167.821 205.806 167.821C204.764 167.821 203.943 167.821 201.652 166.67L196.924 163.888C195.756 163.198 195.034 161.909 195.034 160.531V139.303C195.034 137.921 195.756 136.632 196.924 135.95L214.963 125.326C216.105 124.668 217.62 124.668 218.752 125.326L236.768 135.954C237.932 136.641 238.658 137.926 238.658 139.307V160.537C238.658 161.914 237.932 163.198 236.768 163.888L218.752 174.513C218.175 174.853 217.521 175.029 216.853 175.029L216.855 175.038Z" fill="#689F63"/>
<path fill-rule="evenodd" clip-rule="evenodd" d="M222.421 160.41C214.537 160.41 212.883 156.715 212.883 153.615C212.883 153.321 213.116 153.086 213.406 153.086H215.733C215.989 153.086 216.207 153.278 216.247 153.536C216.599 155.957 217.645 157.179 222.413 157.179C226.211 157.179 227.826 156.303 227.826 154.248C227.826 153.064 227.367 152.184 221.467 151.595C216.531 151.098 213.482 149.987 213.482 145.958C213.482 142.246 216.549 140.036 221.687 140.036C227.456 140.036 230.317 142.081 230.677 146.474C230.691 146.626 230.636 146.773 230.537 146.884C230.438 146.989 230.298 147.054 230.153 147.054H227.813C227.57 147.054 227.358 146.879 227.308 146.639C226.744 144.093 225.381 143.277 221.678 143.277C217.532 143.277 217.05 144.752 217.05 145.856C217.05 147.197 217.619 147.589 223.211 148.343C228.751 149.095 231.381 150.153 231.381 154.127C231.381 158.134 228.106 160.432 222.395 160.432L222.421 160.41ZM244.345 137.918H244.949C245.445 137.918 245.541 137.564 245.541 137.356C245.541 136.812 245.174 136.812 244.972 136.812H244.35L244.345 137.918ZM243.609 136.177H244.949C245.41 136.177 246.312 136.177 246.312 137.227C246.312 137.959 245.851 138.111 245.576 138.204C246.113 138.24 246.149 138.599 246.221 139.106C246.258 139.423 246.316 139.971 246.424 140.156H245.598C245.576 139.971 245.45 138.958 245.45 138.903C245.396 138.677 245.32 138.567 245.044 138.567H244.363V140.16H243.609V136.177ZM241.999 138.157C241.999 139.806 243.303 141.142 244.905 141.142C246.519 141.142 247.822 139.779 247.822 138.157C247.822 136.504 246.502 135.192 244.9 135.192C243.321 135.192 241.995 136.486 241.995 138.153L241.999 138.157ZM248.382 138.166C248.382 140.119 246.817 141.713 244.909 141.713C243.015 141.713 241.435 140.138 241.435 138.166C241.435 136.159 243.05 134.62 244.909 134.62C246.78 134.62 248.377 136.163 248.377 138.166H248.382Z" fill="#689F63"/>
<path fill-rule="evenodd" clip-rule="evenodd" d="M161.051 91.973C161.051 91.1254 160.614 90.347 159.898 89.9255L140.792 78.7027C140.469 78.5101 140.108 78.4082 139.742 78.3946H139.544C139.178 78.4082 138.816 78.5101 138.489 78.7039L119.384 89.9255C118.671 90.3493 118.228 91.1277 118.228 91.9752L118.269 122.203C118.269 122.622 118.481 123.013 118.842 123.22C119.195 123.441 119.637 123.441 119.989 123.22L131.347 116.579C132.064 116.144 132.501 115.374 132.501 114.535V100.414C132.501 99.5712 132.938 98.7928 133.654 98.3735L138.489 95.5307C138.848 95.3188 139.242 95.2135 139.644 95.2135C140.039 95.2135 140.442 95.3177 140.792 95.5307L145.625 98.3724C146.34 98.7916 146.78 99.57 146.78 100.412V114.533C146.78 115.371 147.224 116.144 147.937 116.577L159.288 123.213C159.644 123.43 160.088 123.43 160.443 123.213C160.793 123.006 161.015 122.615 161.015 122.196L161.051 91.973ZM251.208 107.711C251.208 107.922 251.099 108.115 250.919 108.22L244.358 112.082C244.179 112.186 243.959 112.186 243.782 112.082L237.218 108.22C237.037 108.115 236.93 107.921 236.93 107.711V99.9768C236.93 99.7649 237.037 99.5712 237.214 99.4646L243.772 95.5964C243.953 95.4911 244.174 95.4911 244.354 95.5964L250.917 99.4646C251.098 99.5712 251.206 99.7649 251.206 99.9768L251.208 107.711ZM252.981 50.4231C252.623 50.2203 252.187 50.2248 251.834 50.4356C251.482 50.6474 251.265 51.0349 251.265 51.453V81.3858C251.265 81.6804 251.111 81.9523 250.861 82.0996C250.613 82.2469 250.303 82.2469 250.054 82.0996L245.268 79.2863C244.555 78.8648 243.677 78.8648 242.962 79.2863L223.85 90.5465C223.135 90.9657 222.694 91.7441 222.694 92.5825V115.11C222.694 115.953 223.135 116.727 223.85 117.15L242.962 128.418C243.675 128.838 244.554 128.838 245.27 128.418L264.382 117.146C265.095 116.722 265.537 115.948 265.537 115.105V58.9606C265.537 58.1063 265.081 57.3199 264.351 56.9018L252.981 50.4231ZM316.626 99.7728C317.336 99.3513 317.773 98.5741 317.773 97.7368V92.2766C317.773 91.437 317.335 90.662 316.623 90.2394L297.634 78.9837C296.917 78.56 296.036 78.56 295.32 78.9837L276.212 90.2439C275.494 90.6677 275.057 91.4404 275.057 92.2834V114.802C275.057 115.649 275.503 116.432 276.221 116.851L295.206 127.898C295.906 128.309 296.763 128.313 297.472 127.913L308.955 121.397C309.316 121.19 309.547 120.798 309.547 120.374C309.547 119.95 309.325 119.555 308.964 119.347L289.739 108.084C289.378 107.876 289.158 107.484 289.158 107.065V100.002C289.158 99.5802 289.374 99.1916 289.735 98.9808L295.716 95.4582C296.073 95.2463 296.51 95.2463 296.867 95.4582L302.852 98.9808C303.208 99.1882 303.43 99.5802 303.43 99.9983V105.552C303.43 105.972 303.651 106.363 304.008 106.575C304.364 106.782 304.806 106.782 305.162 106.57L316.626 99.7728Z" fill="#333333"/>
<path fill-rule="evenodd" clip-rule="evenodd" d="M296.196 98.7191C296.332 98.6376 296.501 98.6376 296.639 98.7191L300.306 100.879C300.443 100.96 300.527 101.109 300.527 101.271V105.595C300.527 105.755 300.443 105.905 300.306 105.985L296.639 108.146C296.501 108.227 296.332 108.227 296.196 108.146L292.531 105.985C292.392 105.905 292.306 105.755 292.306 105.595V101.271C292.306 101.109 292.387 100.96 292.527 100.879L296.196 98.7191Z" fill="#689F63"/>
<path fill-rule="evenodd" clip-rule="evenodd" d="M190.438 79.5449L171.434 90.7428C170.723 91.162 170.285 91.9359 170.285 92.7721V115.184C170.285 116.021 170.723 116.794 171.434 117.213L190.439 128.42C191.15 128.838 192.025 128.838 192.736 128.42L211.738 117.213C212.446 116.794 212.883 116.02 212.883 115.184V92.7721C212.883 91.9359 212.446 91.162 211.733 90.7428L192.734 79.5449C192.377 79.3364 191.98 79.2322 191.584 79.2322C191.186 79.2322 190.789 79.3364 190.433 79.5449H190.438Z" fill="#5AAD45"/>
<path fill-rule="evenodd" clip-rule="evenodd" d="M170.756 116.606C170.938 116.848 171.166 117.056 171.433 117.213L187.736 126.825L190.451 128.418C190.857 128.659 191.32 128.759 191.775 128.725C191.926 128.713 192.078 128.684 192.225 128.641L212.268 91.1742C212.115 91.0042 211.935 90.8615 211.735 90.7413L199.291 83.406L192.714 79.5423C192.527 79.4313 192.324 79.3531 192.118 79.2976L170.756 116.606Z" fill="#3E863D"/>
<path fill-rule="evenodd" clip-rule="evenodd" d="M191.356 79.2444C191.037 79.2773 190.726 79.3781 190.438 79.5447L171.488 90.7108L191.922 128.706C192.206 128.666 192.486 128.569 192.739 128.42L211.743 117.213C212.329 116.866 212.731 116.278 212.853 115.612L192.022 79.2829C191.869 79.2523 191.714 79.2354 191.557 79.2354C191.494 79.2354 191.43 79.2388 191.367 79.2455L191.356 79.2444Z" fill="#6BBF47"/>
</g>
<defs>
<clipPath id="clip0">
<rect width="210" height="135" fill="white" transform="translate(113 45)"/>
</clipPath>
</defs>
</svg>