<svg width="134" height="54" viewBox="0 0 134 54" fill="none" xmlns="http://www.w3.org/2000/svg">
<path d="M3.7048 13.1338C3.7048 13.7478 3.78746 14.3141 3.95118 14.8326C4.1165 15.3543 4.35175 15.8093 4.6633 16.199C4.97326 16.5887 5.34839 16.8909 5.78552 17.104C6.22423 17.3172 6.72653 17.4237 7.29082 17.4237C8.35105 17.4237 9.21258 17.0802 9.88019 16.3946C10.5462 15.7059 10.88 14.6211 10.88 13.1338C10.88 11.8534 10.5685 10.8195 9.94854 10.0289C9.32703 9.23999 8.44324 8.84393 7.29082 8.84393C6.78057 8.84393 6.30689 8.92505 5.86818 9.08093C5.43105 9.23999 5.05115 9.49449 4.73165 9.84761C4.41215 10.2007 4.161 10.6461 3.97821 11.1853C3.797 11.7245 3.7048 12.3735 3.7048 13.1338ZM0.0361328 13.1338C0.0361328 11.9647 0.209393 10.9261 0.555914 10.0146C0.902435 9.10479 1.39519 8.33493 2.03419 7.70186C2.67319 7.07198 3.43617 6.5932 4.32155 6.26871C5.20692 5.94423 6.19721 5.78198 7.29082 5.78198C8.44324 5.78198 9.47009 5.95695 10.3714 6.31007C11.2758 6.66478 12.0388 7.15946 12.6571 7.79889C13.2802 8.4415 13.7491 9.21772 14.0702 10.126C14.3881 11.0358 14.5487 12.0395 14.5487 13.1338C14.5487 14.3061 14.3738 15.3448 14.0273 16.2546C13.6808 17.1645 13.188 17.9343 12.5506 18.5674C11.91 19.1973 11.1486 19.6776 10.2633 20.0021C9.37789 20.3266 8.38761 20.4889 7.29082 20.4889C6.14158 20.4889 5.11473 20.3107 4.21187 19.9592C3.30742 19.6061 2.54603 19.1098 1.92451 18.4688C1.30459 17.8278 0.834085 17.0531 0.514586 16.1433C0.196677 15.2335 0.0361328 14.2314 0.0361328 13.1338H0.0361328Z" fill="white"/>
<path d="M26.2131 8.84393C25.5201 8.84393 24.8858 9.02208 24.3104 9.37361C23.7366 9.72672 23.3376 10.2564 23.1199 10.9626V16.7557C23.3742 16.9609 23.743 17.1231 24.2278 17.2424C24.711 17.3633 25.2006 17.4237 25.6917 17.4237C26.2036 17.4237 26.6789 17.3363 27.1176 17.1597C27.5547 16.9831 27.9378 16.7 28.2668 16.3103C28.5943 15.9206 28.8518 15.4275 29.033 14.8326C29.2158 14.2393 29.308 13.5235 29.308 12.6885C29.308 11.4637 29.0155 10.5173 28.4321 9.84761C27.8472 9.17955 27.108 8.84393 26.2131 8.84393ZM16.8555 6.17168H22.058L22.4697 7.84343H22.6812C23.6301 6.46754 25.164 5.78198 27.2813 5.78198C28.1206 5.78198 28.8915 5.9156 29.5957 6.18441C30.2982 6.45482 30.8991 6.87633 31.4014 7.45373C31.9037 8.02794 32.2931 8.75326 32.5665 9.62651C32.8399 10.4982 32.9766 11.5464 32.9766 12.7728C32.9766 13.9625 32.8209 15.0346 32.5109 15.989C32.2009 16.9466 31.7543 17.7594 31.1693 18.4274C30.586 19.0955 29.8722 19.6061 29.033 19.9592C28.1937 20.3107 27.2368 20.4889 26.1575 20.4889C25.0067 20.4889 23.9925 20.2073 23.1199 19.6888V27.0709H19.5593V9.23522H16.8555V6.17168Z" fill="white"/>
<path d="M43.6909 8.6785C43.2172 8.6785 42.7689 8.74531 42.3493 8.87733C41.9296 9.00776 41.5513 9.20341 41.2143 9.4595C40.8758 9.714 40.5976 10.0305 40.3782 10.4091C40.1605 10.7877 39.965 11.3142 39.9061 11.6864H46.7316C46.7316 10.759 46.4805 10.0274 45.9782 9.48813C45.4759 8.94891 44.7145 8.6785 43.6909 8.6785ZM49.6055 18.6215C49.3687 18.8442 49.0635 19.0637 48.69 19.2752C48.3132 19.49 47.8777 19.6904 47.3754 19.8765C46.8731 20.061 46.32 20.2105 45.7175 20.3203C45.1167 20.4316 44.4761 20.4889 43.8021 20.4889C42.6338 20.4889 41.5879 20.3203 40.6659 19.9862C39.744 19.6522 38.9635 19.1655 38.3246 18.5244C37.6856 17.885 37.1976 17.1136 36.859 16.2133C36.522 15.313 36.3535 14.287 36.3535 13.1338C36.3535 11.9091 36.5443 10.8354 36.9273 9.91601C37.3104 8.99981 37.8366 8.23313 38.5026 7.61915C39.1686 7.00676 39.9491 6.54707 40.844 6.24008C41.7389 5.93468 42.7069 5.78198 43.7465 5.78198C44.4395 5.78198 45.1564 5.87424 45.8955 6.06034C46.6363 6.24644 47.315 6.56457 47.9365 7.01949C48.5549 7.47599 49.0635 8.08361 49.4561 8.84393C49.8487 9.60743 50.0443 10.5713 50.0443 11.742C50.0443 12.5405 49.9521 13.4042 49.7709 14.3332H39.9125C39.9316 14.9265 40.054 15.4275 40.2829 15.8363C40.5102 16.2451 40.8106 16.5791 41.1873 16.84C41.5609 17.0993 41.99 17.2901 42.4733 17.411C42.9565 17.5319 43.4731 17.5923 44.0199 17.5923C45.6062 17.5923 47.2673 17.0802 48.4293 16.2546L49.6055 18.6215Z" fill="white"/>
<path d="M53.3115 6.17168H58.7128L59.1229 8.00885H59.3168C59.7365 7.41555 60.3389 6.89542 61.1241 6.45004C61.9094 6.00308 62.8504 5.78198 63.944 5.78198C64.6211 5.78198 65.2554 5.87424 65.8467 6.06034C66.4412 6.24644 66.9482 6.55184 67.3679 6.97972C67.7875 7.40601 68.1213 7.98658 68.3661 8.71986C68.6141 9.45473 68.7365 10.3582 68.7365 11.4351V20.0976H65.1759V12.189C65.1759 11.0549 64.9247 10.2373 64.424 9.73627C63.9217 9.23681 63.2875 8.98391 62.5214 8.98391C61.8458 8.98391 61.2291 9.18432 60.6743 9.58198C60.1164 9.98282 59.7365 10.4807 59.5362 11.0724V20.0976H55.9756V9.23681H53.3115V6.17168Z" fill="white"/>
<path d="M29.5544 52.0769C28.8074 52.6543 27.9299 53.0853 26.9253 53.3732C25.9223 53.6611 24.8716 53.8043 23.778 53.8043C22.5906 53.8043 21.5368 53.6277 20.6148 53.2746C19.6929 52.9215 18.9172 52.4268 18.2877 51.7842C17.6567 51.1448 17.1782 50.3686 16.8508 49.4587C16.5202 48.5505 16.3564 47.5468 16.3564 46.4509C16.3564 45.2802 16.5472 44.2415 16.9319 43.3317C17.3165 42.4218 17.849 41.652 18.5341 41.0189C19.2176 40.389 20.0267 39.9086 20.9582 39.5841C21.8897 39.2597 22.9006 39.0974 23.9974 39.0974C25.0195 39.0974 25.978 39.2199 26.8729 39.4601C27.7646 39.7003 28.4513 39.9341 28.9266 40.1552V45.0591H25.9128V42.4966C25.3469 42.3661 24.781 42.3009 24.2152 42.3009C23.7033 42.3009 23.1978 42.3805 22.6956 42.5379C22.1933 42.6954 21.7466 42.9451 21.354 43.2887C20.9614 43.6339 20.6419 44.0649 20.3971 44.5851C20.1491 45.1052 20.0267 45.7271 20.0267 46.4509C20.0267 47.0458 20.1268 47.5929 20.3271 48.0956C20.529 48.595 20.8104 49.0308 21.1759 49.4031C21.54 49.7753 21.993 50.0679 22.5318 50.2811C23.0691 50.4942 23.6668 50.6024 24.3248 50.6024C25.366 50.6024 26.2196 50.4529 26.8856 50.157C27.55 49.8596 28.0491 49.5987 28.3782 49.3776L29.5544 52.0769Z" fill="white"/>
<path d="M30.8438 31.8601H37.3323V41.0475H37.4404C37.8791 40.4542 38.464 39.9802 39.1936 39.6255C39.9232 39.274 40.7816 39.0974 41.7671 39.0974C42.4602 39.0974 43.1008 39.1913 43.6857 39.3758C44.2675 39.5619 44.7714 39.8689 45.191 40.2952C45.6107 40.723 45.9381 41.302 46.1765 42.0353C46.4134 42.7702 46.5326 43.6752 46.5326 44.7521V53.4146H42.972V45.5044C42.972 44.3703 42.7352 43.5543 42.2615 43.0517C41.7862 42.5522 41.1663 42.3009 40.3985 42.3009C39.723 42.3009 39.1015 42.5093 38.5372 42.9276C37.9697 43.3444 37.5691 43.8804 37.3323 44.5294V53.4146H33.7717V34.8107H30.8438V31.8601Z" fill="white"/>
<path d="M53.7204 46.4509C53.7204 47.0632 53.8031 47.6311 53.9668 48.1496C54.1321 48.6698 54.3674 49.1247 54.6805 49.5144C54.9889 49.9041 55.364 50.2063 55.8012 50.4211C56.2399 50.6342 56.7422 50.7408 57.308 50.7408C58.3667 50.7408 59.2282 50.3972 59.8958 49.71C60.5618 49.0229 60.8956 47.9365 60.8956 46.4509C60.8956 45.1688 60.5841 44.1365 59.9642 43.3444C59.3427 42.5554 58.4589 42.1609 57.308 42.1609C56.7962 42.1609 56.3225 42.2405 55.8838 42.398C55.4467 42.5554 55.0668 42.8115 54.7473 43.1646C54.4294 43.5162 54.1766 43.9615 53.9938 44.5008C53.8126 45.04 53.7204 45.689 53.7204 46.4509ZM50.0518 46.4509C50.0518 45.2818 50.225 44.2415 50.5715 43.3317C50.9181 42.4218 51.4108 41.652 52.0514 41.0189C52.6888 40.389 53.4518 39.9086 54.3372 39.5857C55.2226 39.2597 56.2128 39.0974 57.308 39.0974C58.4589 39.0974 59.4857 39.274 60.387 39.6255C61.2914 39.9802 62.0544 40.4765 62.6743 41.1159C63.2959 41.7569 63.7648 42.5332 64.0859 43.4414C64.4054 44.3512 64.5643 45.3549 64.5643 46.4509C64.5643 47.6216 64.3895 48.6602 64.043 49.5701C63.6964 50.4815 63.2037 51.2514 62.5663 51.8828C61.9257 52.5143 61.1643 52.9931 60.2789 53.3176C59.3935 53.6421 58.4032 53.8043 57.308 53.8043C56.1572 53.8043 55.1304 53.6277 54.2275 53.2746C53.323 52.9231 52.5617 52.4268 51.9401 51.7842C51.3202 51.1448 50.8497 50.3686 50.5302 49.4587C50.2123 48.5505 50.0518 47.5468 50.0518 46.4509Z" fill="white"/>
<path d="M71.1501 46.4509C71.1501 47.0632 71.2312 47.6311 71.3949 48.1496C71.5602 48.6698 71.7971 49.1247 72.1086 49.5144C72.4186 49.9041 72.7921 50.2063 73.2308 50.4211C73.6679 50.6342 74.1718 50.7408 74.7361 50.7408C75.7963 50.7408 76.6579 50.3972 77.3239 49.71C77.9899 49.0229 78.3237 47.9365 78.3237 46.4509C78.3237 45.1688 78.0122 44.1365 77.3922 43.3444C76.7707 42.5554 75.8869 42.1609 74.7361 42.1609C74.2243 42.1609 73.7506 42.2405 73.3135 42.398C72.8748 42.5554 72.4949 42.8115 72.177 43.1646C71.8575 43.5162 71.6063 43.9615 71.4219 44.5008C71.2407 45.04 71.1501 45.689 71.1501 46.4509ZM67.4814 46.4509C67.4814 45.2818 67.6531 44.2415 67.9996 43.3317C68.3462 42.4218 68.8389 41.652 69.4795 41.0189C70.1169 40.389 70.8799 39.9086 71.7653 39.5857C72.6506 39.2597 73.6409 39.0974 74.7361 39.0974C75.8869 39.0974 76.9138 39.274 77.8167 39.6255C78.7195 39.9802 79.4825 40.4765 80.1024 41.1159C80.7239 41.7569 81.1928 42.5332 81.5139 43.4414C81.8334 44.3512 81.9924 45.3549 81.9924 46.4509C81.9924 47.6216 81.8191 48.6602 81.4726 49.5701C81.1261 50.4815 80.6317 51.2514 79.9943 51.8828C79.3537 52.5143 78.5939 52.9931 77.7086 53.3176C76.8216 53.6421 75.8329 53.8043 74.7361 53.8043C73.5869 53.8043 72.56 53.6277 71.6556 53.2746C70.7511 52.9231 69.9913 52.4268 69.3698 51.7842C68.7499 51.1448 68.2778 50.3686 67.9599 49.4587C67.6404 48.5505 67.4814 47.5468 67.4814 46.4509Z" fill="white"/>
<path d="M82.8486 33.9136H89.6312V47.5086C89.6312 48.3771 89.7965 49.3314 90.2782 49.8802C90.6469 50.2985 91.4083 50.6024 92.0855 50.6024C93.2586 50.6024 93.9325 50.1967 94.4777 49.9041L95.8193 52.4109C95.8193 52.4109 94.2123 53.8043 91.3845 53.8043C88.6886 53.8043 86.2359 52.185 86.2359 48.3421V36.9771H82.8486V33.9136Z" fill="white"/>
<path d="M11.9359 43.5082L13.5334 40.89C13.5334 40.89 11.1856 39.0051 7.37705 39.0051C3.56691 39.0051 1.29545 40.9918 1.29545 43.3427C1.29545 45.9514 4.32354 47.0521 6.87793 47.7679C9.34491 48.4582 10.2207 48.7874 10.2207 49.6655C10.2207 50.2651 9.47843 50.9125 8.01446 50.9125C6.36769 50.9125 3.9484 49.8929 2.62908 48.7954L0.828125 51.3754C0.828125 51.3754 3.55261 53.9999 7.91591 53.9999C11.4526 53.9999 13.7575 52.0896 13.7575 49.5112C13.7575 47.8124 12.5717 46.2854 8.8903 45.1783C6.56638 44.48 4.84332 44.1842 4.84332 43.1741C4.84332 42.5204 5.65875 41.9541 7.38977 41.9541C8.80605 41.9541 10.6197 42.5952 11.9359 43.5082Z" fill="white"/>
<path d="M85.1056 13.3119C85.1056 8.79929 87.1767 4.77183 90.4178 2.12663L87.9 0.222656C84.0851 3.30528 81.6436 8.02306 81.6436 13.3119C81.6436 18.6357 84.1153 23.3789 87.9715 26.46L90.44 24.5162C87.1863 21.8694 85.1056 17.8356 85.1056 13.3119Z" fill="white"/>
<path d="M130.501 13.3119C130.501 8.79929 128.43 4.77183 125.188 2.12663L127.705 0.222656C131.522 3.30528 133.963 8.02306 133.963 13.3119C133.963 18.6357 131.49 23.3789 127.634 26.46L125.167 24.5162C128.421 21.8694 130.501 17.8356 130.501 13.3119Z" fill="white"/>
<path d="M95.9411 20.7447L94.2275 23.2054C95.2162 23.9832 97.0124 24.7833 98.7832 24.7833C102.395 24.7833 104.935 22.9127 104.935 18.3461V7.08765H95.5055V9.88873H101.69V18.1759C101.69 20.3232 100.732 21.7341 98.6052 21.7341C97.4496 21.7341 96.3114 21.0151 95.9411 20.7447Z" fill="white"/>
<path d="M105.323 2.4766C105.323 3.84453 104.215 4.95478 102.848 4.95478C101.481 4.95478 100.373 3.84453 100.373 2.4766C100.373 1.10866 101.481 0 102.848 0C104.215 0 105.323 1.10866 105.323 2.4766Z" fill="white"/>
<path d="M119.55 11.0691L121.088 8.54952C121.088 8.54952 118.828 6.73462 115.163 6.73462C111.495 6.73462 109.308 8.64655 109.308 10.91C109.308 13.4216 112.222 14.481 114.681 15.1697C117.056 15.833 117.9 16.1511 117.9 16.9957C117.9 17.5731 117.266 18.1569 115.857 18.1569C114.271 18.1569 111.861 17.2152 110.593 16.1591L108.858 18.6404C108.858 18.6404 111.481 21.1679 115.681 21.1679C119.086 21.1679 121.303 19.3292 121.303 16.8478C121.303 15.211 120.162 13.7429 116.619 12.6772C114.382 12.0044 112.723 11.7196 112.723 10.7478C112.723 10.1195 113.508 9.57388 115.174 9.57388C116.537 9.57388 118.283 10.1895 119.55 11.0691Z" fill="white"/>
</svg>
