<svg width="134" height="54" viewBox="0 0 134 54" fill="none" xmlns="http://www.w3.org/2000/svg">
<path d="M3.7048 13.1341C3.7048 13.7481 3.78746 14.3143 3.95118 14.8329C4.1165 15.3546 4.35175 15.8095 4.6633 16.1992C4.97326 16.5889 5.34839 16.8911 5.78552 17.1043C6.22423 17.3174 6.72653 17.424 7.29082 17.424C8.35105 17.424 9.21258 17.0804 9.88019 16.3949C10.5462 15.7061 10.88 14.6213 10.88 13.1341C10.88 11.8536 10.5685 10.8197 9.94854 10.0292C9.32703 9.24024 8.44324 8.84417 7.29082 8.84417C6.78057 8.84417 6.30689 8.92529 5.86818 9.08118C5.43105 9.24024 5.05115 9.49474 4.73165 9.84785C4.41215 10.201 4.161 10.6463 3.97821 11.1856C3.797 11.7248 3.7048 12.3738 3.7048 13.1341ZM0.0361328 13.1341C0.0361328 11.965 0.209393 10.9263 0.555914 10.0149C0.902435 9.10503 1.39519 8.33517 2.03419 7.70211C2.67319 7.07222 3.43617 6.59344 4.32155 6.26896C5.20692 5.94447 6.19721 5.78223 7.29082 5.78223C8.44324 5.78223 9.47009 5.95719 10.3714 6.31031C11.2758 6.66502 12.0388 7.1597 12.6571 7.79913C13.2802 8.44175 13.7491 9.21797 14.0702 10.1262C14.3881 11.036 14.5487 12.0397 14.5487 13.1341C14.5487 14.3064 14.3738 15.345 14.0273 16.2549C13.6808 17.1647 13.188 17.9346 12.5506 18.5676C11.91 19.1975 11.1486 19.6779 10.2633 20.0024C9.37789 20.3269 8.38761 20.4891 7.29082 20.4891C6.14158 20.4891 5.11473 20.311 4.21187 19.9594C3.30742 19.6063 2.54603 19.11 1.92451 18.469C1.30459 17.828 0.834085 17.0534 0.514586 16.1435C0.196677 15.2337 0.0361328 14.2316 0.0361328 13.1341H0.0361328Z" fill="white"/>
<path d="M26.2131 8.84417C25.5201 8.84417 24.8858 9.02232 24.3104 9.37385C23.7366 9.72697 23.3376 10.2566 23.1199 10.9629V16.7559C23.3742 16.9611 23.743 17.1234 24.2278 17.2427C24.711 17.3635 25.2006 17.424 25.6917 17.424C26.2036 17.424 26.6789 17.3365 27.1176 17.1599C27.5547 16.9834 27.9378 16.7003 28.2668 16.3105C28.5943 15.9208 28.8518 15.4278 29.033 14.8329C29.2158 14.2396 29.308 13.5238 29.308 12.6887C29.308 11.4639 29.0155 10.5175 28.4321 9.84786C27.8472 9.17979 27.108 8.84417 26.2131 8.84417ZM16.8555 6.17193H22.058L22.4697 7.84367H22.6812C23.6301 6.46778 25.164 5.78223 27.2813 5.78223C28.1206 5.78223 28.8915 5.91584 29.5957 6.18465C30.2982 6.45506 30.8991 6.87657 31.4014 7.45397C31.9037 8.02818 32.2931 8.75351 32.5665 9.62676C32.8399 10.4984 32.9766 11.5466 32.9766 12.773C32.9766 13.9628 32.8209 15.0349 32.5109 15.9892C32.2009 16.9468 31.7543 17.7596 31.1693 18.4277C30.586 19.0957 29.8722 19.6063 29.033 19.9594C28.1937 20.311 27.2368 20.4891 26.1575 20.4891C25.0067 20.4891 23.9925 20.2076 23.1199 19.689V27.0711H19.5593V9.23547H16.8555V6.17193Z" fill="white"/>
<path d="M43.6909 8.67875C43.2172 8.67875 42.7689 8.74555 42.3493 8.87758C41.9296 9.00801 41.5513 9.20365 41.2143 9.45974C40.8758 9.71424 40.5976 10.0308 40.3782 10.4093C40.1605 10.7879 39.965 11.3144 39.9061 11.6866H46.7316C46.7316 10.7593 46.4805 10.0276 45.9782 9.48837C45.4759 8.94915 44.7145 8.67875 43.6909 8.67875ZM49.6055 18.6217C49.3687 18.8444 49.0635 19.0639 48.69 19.2755C48.3132 19.4902 47.8777 19.6906 47.3754 19.8767C46.8731 20.0612 46.32 20.2108 45.7175 20.3205C45.1167 20.4318 44.4761 20.4891 43.8021 20.4891C42.6338 20.4891 41.5879 20.3205 40.6659 19.9865C39.744 19.6524 38.9635 19.1657 38.3246 18.5247C37.6856 17.8853 37.1976 17.1138 36.859 16.2135C36.522 15.3132 36.3535 14.2873 36.3535 13.1341C36.3535 11.9093 36.5443 10.8356 36.9273 9.91625C37.3104 9.00005 37.8366 8.23337 38.5026 7.61939C39.1686 7.00701 39.9491 6.54732 40.844 6.24033C41.7389 5.93493 42.7069 5.78223 43.7465 5.78223C44.4395 5.78223 45.1564 5.87448 45.8955 6.06059C46.6363 6.24669 47.315 6.56481 47.9365 7.01973C48.5549 7.47624 49.0635 8.08386 49.4561 8.84417C49.8487 9.60767 50.0443 10.5716 50.0443 11.7423C50.0443 12.5408 49.9521 13.4045 49.7709 14.3334H39.9125C39.9316 14.9267 40.054 15.4278 40.2829 15.8365C40.5102 16.2453 40.8106 16.5794 41.1873 16.8402C41.5609 17.0995 41.99 17.2904 42.4733 17.4113C42.9565 17.5321 43.4731 17.5926 44.0199 17.5926C45.6062 17.5926 47.2673 17.0804 48.4293 16.2549L49.6055 18.6217Z" fill="white"/>
<path d="M53.3115 6.17193H58.7128L59.1229 8.0091H59.3168C59.7365 7.4158 60.3389 6.89566 61.1241 6.45029C61.9094 6.00332 62.8504 5.78223 63.944 5.78223C64.6211 5.78223 65.2554 5.87448 65.8467 6.06059C66.4412 6.24669 66.9482 6.55209 67.3679 6.97997C67.7875 7.40625 68.1213 7.98683 68.3661 8.72011C68.6141 9.45497 68.7365 10.3584 68.7365 11.4353V20.0978H65.1759V12.1893C65.1759 11.0551 64.9247 10.2376 64.424 9.73651C63.9217 9.23706 63.2875 8.98415 62.5214 8.98415C61.8458 8.98415 61.2291 9.18457 60.6743 9.58222C60.1164 9.98306 59.7365 10.4809 59.5362 11.0726V20.0978H55.9756V9.23706H53.3115V6.17193Z" fill="white"/>
<path d="M29.5544 52.0771C28.8074 52.6545 27.9299 53.0856 26.9253 53.3735C25.9223 53.6614 24.8716 53.8046 23.778 53.8046C22.5906 53.8046 21.5368 53.628 20.6148 53.2749C19.6929 52.9218 18.9172 52.4271 18.2877 51.7845C17.6567 51.145 17.1782 50.3688 16.8508 49.459C16.5202 48.5507 16.3564 47.547 16.3564 46.4511C16.3564 45.2804 16.5472 44.2417 16.9319 43.3319C17.3165 42.4221 17.849 41.6522 18.5341 41.0191C19.2176 40.3892 20.0267 39.9089 20.9582 39.5844C21.8897 39.2599 22.9006 39.0977 23.9974 39.0977C25.0195 39.0977 25.978 39.2201 26.8729 39.4603C27.7646 39.7005 28.4513 39.9343 28.9266 40.1554V45.0593H25.9128V42.4968C25.3469 42.3664 24.781 42.3012 24.2152 42.3012C23.7033 42.3012 23.1978 42.3807 22.6956 42.5382C22.1933 42.6956 21.7466 42.9454 21.354 43.2889C20.9614 43.6341 20.6419 44.0652 20.3971 44.5853C20.1491 45.1054 20.0267 45.7274 20.0267 46.4511C20.0267 47.046 20.1268 47.5932 20.3271 48.0958C20.529 48.5953 20.8104 49.0311 21.1759 49.4033C21.54 49.7755 21.993 50.0682 22.5318 50.2813C23.0691 50.4945 23.6668 50.6026 24.3248 50.6026C25.366 50.6026 26.2196 50.4531 26.8856 50.1572C27.55 49.8598 28.0491 49.5989 28.3782 49.3778L29.5544 52.0771Z" fill="white"/>
<path d="M30.8438 31.8604H37.3323V41.0478H37.4404C37.8791 40.4545 38.464 39.9805 39.1936 39.6257C39.9232 39.2742 40.7816 39.0977 41.7671 39.0977C42.4602 39.0977 43.1008 39.1915 43.6857 39.376C44.2675 39.5621 44.7714 39.8691 45.191 40.2954C45.6107 40.7233 45.9381 41.3023 46.1765 42.0355C46.4134 42.7704 46.5326 43.6755 46.5326 44.7523V53.4148H42.972V45.5047C42.972 44.3706 42.7352 43.5546 42.2615 43.0519C41.7862 42.5525 41.1663 42.3012 40.3985 42.3012C39.723 42.3012 39.1015 42.5095 38.5372 42.9279C37.9697 43.3446 37.5691 43.8807 37.3323 44.5296V53.4148H33.7717V34.8109H30.8438V31.8604Z" fill="white"/>
<path d="M53.7204 46.4511C53.7204 47.0635 53.8031 47.6313 53.9668 48.1499C54.1321 48.67 54.3674 49.1249 54.6805 49.5146C54.9889 49.9043 55.364 50.2066 55.8012 50.4213C56.2399 50.6344 56.7422 50.741 57.308 50.741C58.3667 50.741 59.2282 50.3974 59.8958 49.7103C60.5618 49.0231 60.8956 47.9367 60.8956 46.4511C60.8956 45.1691 60.5841 44.1367 59.9642 43.3446C59.3427 42.5557 58.4589 42.1612 57.308 42.1612C56.7962 42.1612 56.3225 42.2407 55.8838 42.3982C55.4467 42.5557 55.0668 42.8118 54.7473 43.1649C54.4294 43.5164 54.1766 43.9618 53.9938 44.501C53.8126 45.0402 53.7204 45.6892 53.7204 46.4511ZM50.0518 46.4511C50.0518 45.282 50.225 44.2417 50.5715 43.3319C50.9181 42.4221 51.4108 41.6522 52.0514 41.0191C52.6888 40.3892 53.4518 39.9089 54.3372 39.586C55.2226 39.2599 56.2128 39.0977 57.308 39.0977C58.4589 39.0977 59.4857 39.2742 60.387 39.6257C61.2914 39.9805 62.0544 40.4767 62.6743 41.1162C63.2959 41.7572 63.7648 42.5334 64.0859 43.4416C64.4054 44.3515 64.5643 45.3552 64.5643 46.4511C64.5643 47.6218 64.3895 48.6605 64.043 49.5703C63.6964 50.4817 63.2037 51.2516 62.5663 51.8831C61.9257 52.5146 61.1643 52.9933 60.2789 53.3178C59.3935 53.6423 58.4032 53.8046 57.308 53.8046C56.1572 53.8046 55.1304 53.628 54.2275 53.2749C53.323 52.9233 52.5617 52.4271 51.9401 51.7845C51.3202 51.145 50.8497 50.3688 50.5302 49.459C50.2123 48.5507 50.0518 47.547 50.0518 46.4511Z" fill="white"/>
<path d="M71.1501 46.4511C71.1501 47.0635 71.2312 47.6313 71.3949 48.1499C71.5602 48.67 71.7971 49.1249 72.1086 49.5146C72.4186 49.9043 72.7921 50.2066 73.2308 50.4213C73.6679 50.6344 74.1718 50.741 74.7361 50.741C75.7963 50.741 76.6579 50.3974 77.3239 49.7103C77.9899 49.0231 78.3237 47.9367 78.3237 46.4511C78.3237 45.1691 78.0122 44.1367 77.3922 43.3446C76.7707 42.5557 75.8869 42.1612 74.7361 42.1612C74.2243 42.1612 73.7506 42.2407 73.3135 42.3982C72.8748 42.5557 72.4949 42.8118 72.177 43.1649C71.8575 43.5164 71.6063 43.9618 71.4219 44.501C71.2407 45.0402 71.1501 45.6892 71.1501 46.4511ZM67.4814 46.4511C67.4814 45.282 67.6531 44.2417 67.9996 43.3319C68.3462 42.4221 68.8389 41.6522 69.4795 41.0191C70.1169 40.3892 70.8799 39.9089 71.7653 39.586C72.6506 39.2599 73.6409 39.0977 74.7361 39.0977C75.8869 39.0977 76.9138 39.2742 77.8167 39.6257C78.7195 39.9805 79.4825 40.4767 80.1024 41.1162C80.7239 41.7572 81.1928 42.5334 81.5139 43.4416C81.8334 44.3515 81.9924 45.3552 81.9924 46.4511C81.9924 47.6218 81.8191 48.6605 81.4726 49.5703C81.1261 50.4817 80.6317 51.2516 79.9943 51.8831C79.3537 52.5146 78.5939 52.9933 77.7086 53.3178C76.8216 53.6423 75.8329 53.8046 74.7361 53.8046C73.5869 53.8046 72.56 53.628 71.6556 53.2749C70.7511 52.9233 69.9913 52.4271 69.3698 51.7845C68.7499 51.145 68.2778 50.3688 67.9599 49.459C67.6404 48.5507 67.4814 47.547 67.4814 46.4511Z" fill="white"/>
<path d="M82.8486 33.9136H89.6312V47.5086C89.6312 48.3771 89.7965 49.3314 90.2782 49.8802C90.6469 50.2985 91.4083 50.6024 92.0855 50.6024C93.2586 50.6024 93.9325 50.1967 94.4777 49.9041L95.8193 52.4109C95.8193 52.4109 94.2123 53.8043 91.3845 53.8043C88.6886 53.8043 86.2359 52.185 86.2359 48.3421V36.9771H82.8486V33.9136Z" fill="white"/>
<path d="M11.9359 43.5084L13.5334 40.8903C13.5334 40.8903 11.1856 39.0054 7.37705 39.0054C3.56691 39.0054 1.29545 40.9921 1.29545 43.343C1.29545 45.9516 4.32354 47.0523 6.87793 47.7681C9.34491 48.4584 10.2207 48.7877 10.2207 49.6657C10.2207 50.2654 9.47843 50.9128 8.01446 50.9128C6.36769 50.9128 3.9484 49.8932 2.62908 48.7956L0.828125 51.3756C0.828125 51.3756 3.55261 54.0002 7.91591 54.0002C11.4526 54.0002 13.7575 52.0898 13.7575 49.5114C13.7575 47.8126 12.5717 46.2856 8.8903 45.1786C6.56638 44.4803 4.84332 44.1844 4.84332 43.1744C4.84332 42.5206 5.65875 41.9544 7.38977 41.9544C8.80605 41.9544 10.6197 42.5954 11.9359 43.5084Z" fill="white"/>
<path d="M85.1056 13.3119C85.1056 8.79929 87.1767 4.77183 90.4178 2.12663L87.9 0.222656C84.0851 3.30528 81.6436 8.02306 81.6436 13.3119C81.6436 18.6357 84.1153 23.3789 87.9715 26.46L90.44 24.5162C87.1863 21.8694 85.1056 17.8356 85.1056 13.3119Z" fill="#000D72"/>
<path d="M130.501 13.3119C130.501 8.79929 128.43 4.77183 125.188 2.12663L127.705 0.222656C131.522 3.30528 133.963 8.02306 133.963 13.3119C133.963 18.6357 131.49 23.3789 127.634 26.46L125.167 24.5162C128.421 21.8694 130.501 17.8356 130.501 13.3119Z" fill="#000D72"/>
<path d="M95.9411 20.745L94.2275 23.2057C95.2162 23.9835 97.0124 24.7836 98.7832 24.7836C102.395 24.7836 104.935 22.913 104.935 18.3463V7.08789H95.5055V9.88897H101.69V18.1761C101.69 20.3235 100.732 21.7343 98.6052 21.7343C97.4496 21.7343 96.3114 21.0154 95.9411 20.745Z" fill="#000D72"/>
<path d="M105.323 2.4766C105.323 3.84453 104.215 4.95478 102.848 4.95478C101.481 4.95478 100.373 3.84453 100.373 2.4766C100.373 1.10866 101.481 0 102.848 0C104.215 0 105.323 1.10866 105.323 2.4766Z" fill="#000D72"/>
<path d="M119.55 11.0693L121.088 8.54976C121.088 8.54976 118.828 6.73486 115.163 6.73486C111.495 6.73486 109.308 8.64679 109.308 10.9102C109.308 13.4218 112.222 14.4812 114.681 15.1699C117.056 15.8332 117.9 16.1513 117.9 16.996C117.9 17.5734 117.266 18.1571 115.857 18.1571C114.271 18.1571 111.861 17.2155 110.593 16.1593L108.858 18.6407C108.858 18.6407 111.481 21.1682 115.681 21.1682C119.086 21.1682 121.303 19.3294 121.303 16.848C121.303 15.2113 120.162 13.7431 116.619 12.6774C114.382 12.0046 112.723 11.7199 112.723 10.748C112.723 10.1197 113.508 9.57412 115.174 9.57412C116.537 9.57412 118.283 10.1897 119.55 11.0693Z" fill="#000D72"/>
</svg>
