<svg width="134" height="54" viewBox="0 0 134 54" fill="none" xmlns="http://www.w3.org/2000/svg">
<path d="M3.70505 13.1341C3.70505 13.7481 3.7877 14.3143 3.95143 14.8329C4.11674 15.3546 4.35199 15.8095 4.66354 16.1992C4.97351 16.5889 5.34864 16.8911 5.78576 17.1043C6.22448 17.3174 6.72677 17.424 7.29106 17.424C8.35129 17.424 9.21282 17.0804 9.88043 16.3949C10.5465 15.7061 10.8803 14.6213 10.8803 13.1341C10.8803 11.8536 10.5687 10.8197 9.94878 10.0292C9.32727 9.24024 8.44348 8.84417 7.29106 8.84417C6.78082 8.84417 6.30713 8.92529 5.86842 9.08118C5.43129 9.24024 5.05139 9.49474 4.73189 9.84785C4.4124 10.201 4.16125 10.6463 3.97845 11.1856C3.79724 11.7248 3.70505 12.3738 3.70505 13.1341ZM0.036377 13.1341C0.036377 11.965 0.209637 10.9263 0.556158 10.0149C0.902679 9.10503 1.39544 8.33517 2.03444 7.70211C2.67343 7.07222 3.43641 6.59344 4.32179 6.26896C5.20717 5.94447 6.19746 5.78223 7.29106 5.78223C8.44348 5.78223 9.47033 5.95719 10.3716 6.31031C11.2761 6.66502 12.039 7.1597 12.6574 7.79913C13.2805 8.44175 13.7494 9.21797 14.0705 10.1262C14.3884 11.036 14.5489 12.0397 14.5489 13.1341C14.5489 14.3064 14.3741 15.345 14.0276 16.2549C13.681 17.1647 13.1883 17.9346 12.5509 18.5676C11.9103 19.1975 11.1489 19.6779 10.2635 20.0024C9.37814 20.3269 8.38785 20.4891 7.29106 20.4891C6.14182 20.4891 5.11498 20.311 4.21211 19.9594C3.30766 19.6063 2.54627 19.11 1.92476 18.469C1.30483 17.828 0.834329 17.0534 0.51483 16.1435C0.196921 15.2337 0.036377 14.2316 0.036377 13.1341H0.036377Z" fill="white"/>
<path d="M26.2131 8.84417C25.5201 8.84417 24.8858 9.02232 24.3104 9.37385C23.7366 9.72697 23.3376 10.2566 23.1199 10.9629V16.7559C23.3742 16.9611 23.743 17.1234 24.2278 17.2427C24.711 17.3635 25.2006 17.424 25.6917 17.424C26.2036 17.424 26.6789 17.3365 27.1176 17.1599C27.5547 16.9834 27.9378 16.7003 28.2668 16.3105C28.5943 15.9208 28.8518 15.4278 29.033 14.8329C29.2158 14.2396 29.308 13.5238 29.308 12.6887C29.308 11.4639 29.0155 10.5175 28.4321 9.84786C27.8472 9.17979 27.108 8.84417 26.2131 8.84417ZM16.8555 6.17193H22.058L22.4697 7.84367H22.6812C23.6301 6.46778 25.164 5.78223 27.2813 5.78223C28.1206 5.78223 28.8915 5.91584 29.5957 6.18465C30.2982 6.45506 30.8991 6.87657 31.4014 7.45397C31.9037 8.02818 32.2931 8.75351 32.5665 9.62676C32.8399 10.4984 32.9766 11.5466 32.9766 12.773C32.9766 13.9628 32.8209 15.0349 32.5109 15.9892C32.2009 16.9468 31.7543 17.7596 31.1693 18.4277C30.586 19.0957 29.8722 19.6063 29.033 19.9594C28.1937 20.311 27.2368 20.4891 26.1575 20.4891C25.0067 20.4891 23.9925 20.2076 23.1199 19.689V27.0711H19.5593V9.23547H16.8555V6.17193Z" fill="white"/>
<path d="M43.6916 8.67875C43.2179 8.67875 42.7696 8.74555 42.35 8.87758C41.9304 9.00801 41.5521 9.20365 41.2151 9.45974C40.8765 9.71424 40.5983 10.0308 40.379 10.4093C40.1612 10.7879 39.9657 11.3144 39.9069 11.6866H46.7324C46.7324 10.7593 46.4812 10.0276 45.9789 9.48837C45.4766 8.94915 44.7153 8.67875 43.6916 8.67875ZM49.6063 18.6217C49.3694 18.8444 49.0642 19.0639 48.6907 19.2755C48.314 19.4902 47.8784 19.6906 47.3761 19.8767C46.8739 20.0612 46.3207 20.2108 45.7183 20.3205C45.1174 20.4318 44.4768 20.4891 43.8029 20.4891C42.6345 20.4891 41.5886 20.3205 40.6667 19.9865C39.7447 19.6524 38.9643 19.1657 38.3253 18.5247C37.6863 17.8853 37.1983 17.1138 36.8597 16.2135C36.5227 15.3132 36.3542 14.2873 36.3542 13.1341C36.3542 11.9093 36.545 10.8356 36.9281 9.91625C37.3112 9.00005 37.8373 8.23337 38.5033 7.61939C39.1693 7.00701 39.9498 6.54732 40.8447 6.24033C41.7396 5.93493 42.7077 5.78223 43.7472 5.78223C44.4403 5.78223 45.1571 5.87448 45.8963 6.06059C46.637 6.24669 47.3157 6.56481 47.9373 7.01973C48.5556 7.47624 49.0642 8.08386 49.4569 8.84417C49.8495 9.60767 50.045 10.5716 50.045 11.7423C50.045 12.5408 49.9528 13.4045 49.7716 14.3334H39.9132C39.9323 14.9267 40.0547 15.4278 40.2836 15.8365C40.5109 16.2453 40.8113 16.5794 41.1881 16.8402C41.5616 17.0995 41.9908 17.2904 42.474 17.4113C42.9572 17.5321 43.4738 17.5926 44.0206 17.5926C45.607 17.5926 47.2681 17.0804 48.43 16.2549L49.6063 18.6217Z" fill="white"/>
<path d="M53.3115 6.17193H58.7128L59.1229 8.0091H59.3168C59.7365 7.4158 60.3389 6.89566 61.1241 6.45029C61.9094 6.00332 62.8504 5.78223 63.944 5.78223C64.6211 5.78223 65.2554 5.87448 65.8467 6.06059C66.4412 6.24669 66.9482 6.55209 67.3679 6.97997C67.7875 7.40625 68.1213 7.98683 68.3661 8.72011C68.6141 9.45497 68.7365 10.3584 68.7365 11.4353V20.0978H65.1759V12.1893C65.1759 11.0551 64.9247 10.2376 64.424 9.73651C63.9217 9.23706 63.2875 8.98415 62.5214 8.98415C61.8458 8.98415 61.2291 9.18457 60.6743 9.58222C60.1164 9.98306 59.7365 10.4809 59.5362 11.0726V20.0978H55.9756V9.23706H53.3115V6.17193Z" fill="white"/>
<path d="M29.5542 52.0771C28.8071 52.6545 27.9297 53.0856 26.9251 53.3735C25.9221 53.6614 24.8714 53.8046 23.7778 53.8046C22.5904 53.8046 21.5365 53.628 20.6146 53.2749C19.6927 52.9218 18.917 52.4271 18.2875 51.7845C17.6564 51.145 17.178 50.3688 16.8505 49.459C16.5199 48.5507 16.3562 47.547 16.3562 46.4511C16.3562 45.2804 16.5469 44.2417 16.9316 43.3319C17.3163 42.4221 17.8488 41.6522 18.5339 41.0191C19.2174 40.3892 20.0265 39.9089 20.9579 39.5844C21.8894 39.2599 22.9004 39.0977 23.9971 39.0977C25.0192 39.0977 25.9777 39.2201 26.8726 39.4603C27.7644 39.7005 28.4511 39.9343 28.9263 40.1554V45.0593H25.9125V42.4968C25.3467 42.3664 24.7808 42.3012 24.2149 42.3012C23.7031 42.3012 23.1976 42.3807 22.6953 42.5382C22.193 42.6956 21.7464 42.9454 21.3537 43.2889C20.9611 43.6341 20.6416 44.0652 20.3968 44.5853C20.1489 45.1054 20.0265 45.7274 20.0265 46.4511C20.0265 47.046 20.1266 47.5932 20.3269 48.0958C20.5288 48.5953 20.8101 49.0311 21.1757 49.4033C21.5397 49.7755 21.9927 50.0682 22.5316 50.2813C23.0689 50.4945 23.6665 50.6026 24.3246 50.6026C25.3657 50.6026 26.2193 50.4531 26.8854 50.1572C27.5498 49.8598 28.0489 49.5989 28.3779 49.3778L29.5542 52.0771Z" fill="white"/>
<path d="M30.8433 31.8604H37.3318V41.0478H37.4399C37.8786 40.4545 38.4636 39.9805 39.1932 39.6257C39.9228 39.2742 40.7811 39.0977 41.7666 39.0977C42.4597 39.0977 43.1003 39.1915 43.6852 39.376C44.267 39.5621 44.7709 39.8691 45.1905 40.2954C45.6102 40.7233 45.9376 41.3023 46.176 42.0355C46.4129 42.7704 46.5321 43.6755 46.5321 44.7523V53.4148H42.9715V45.5047C42.9715 44.3706 42.7347 43.5546 42.261 43.0519C41.7857 42.5525 41.1658 42.3012 40.398 42.3012C39.7225 42.3012 39.101 42.5095 38.5367 42.9279C37.9692 43.3446 37.5686 43.8807 37.3318 44.5296V53.4148H33.7712V34.8109H30.8433V31.8604Z" fill="white"/>
<path d="M53.7199 46.4511C53.7199 47.0635 53.8026 47.6313 53.9663 48.1499C54.1316 48.67 54.3669 49.1249 54.68 49.5146C54.9884 49.9043 55.3635 50.2066 55.8007 50.4213C56.2394 50.6344 56.7417 50.741 57.3075 50.741C58.3662 50.741 59.2277 50.3974 59.8953 49.7103C60.5614 49.0231 60.8952 47.9367 60.8952 46.4511C60.8952 45.1691 60.5836 44.1367 59.9637 43.3446C59.3422 42.5557 58.4584 42.1612 57.3075 42.1612C56.7957 42.1612 56.322 42.2407 55.8833 42.3982C55.4462 42.5557 55.0663 42.8118 54.7468 43.1649C54.4289 43.5164 54.1761 43.9618 53.9933 44.501C53.8121 45.0402 53.7199 45.6892 53.7199 46.4511ZM50.0513 46.4511C50.0513 45.282 50.2245 44.2417 50.5711 43.3319C50.9176 42.4221 51.4103 41.6522 52.0509 41.0191C52.6883 40.3892 53.4513 39.9089 54.3367 39.586C55.2221 39.2599 56.2124 39.0977 57.3075 39.0977C58.4584 39.0977 59.4852 39.2742 60.3865 39.6257C61.291 39.9805 62.0539 40.4767 62.6739 41.1162C63.2954 41.7572 63.7643 42.5334 64.0854 43.4416C64.4049 44.3515 64.5638 45.3552 64.5638 46.4511C64.5638 47.6218 64.389 48.6605 64.0425 49.5703C63.6959 50.4817 63.2032 51.2516 62.5658 51.8831C61.9252 52.5146 61.1638 52.9933 60.2784 53.3178C59.393 53.6423 58.4027 53.8046 57.3075 53.8046C56.1567 53.8046 55.1299 53.628 54.227 53.2749C53.3226 52.9233 52.5612 52.4271 51.9397 51.7845C51.3197 51.145 50.8492 50.3688 50.5297 49.459C50.2118 48.5507 50.0513 47.547 50.0513 46.4511Z" fill="white"/>
<path d="M71.1494 46.4511C71.1494 47.0635 71.2304 47.6313 71.3942 48.1499C71.5595 48.67 71.7963 49.1249 72.1079 49.5146C72.4178 49.9043 72.7914 50.2066 73.2301 50.4213C73.6672 50.6344 74.1711 50.741 74.7354 50.741C75.7956 50.741 76.6571 50.3974 77.3232 49.7103C77.9892 49.0231 78.323 47.9367 78.323 46.4511C78.323 45.1691 78.0114 44.1367 77.3915 43.3446C76.77 42.5557 75.8862 42.1612 74.7354 42.1612C74.2236 42.1612 73.7499 42.2407 73.3127 42.3982C72.874 42.5557 72.4941 42.8118 72.1762 43.1649C71.8567 43.5164 71.6056 43.9618 71.4212 44.501C71.24 45.0402 71.1494 45.6892 71.1494 46.4511ZM67.4807 46.4511C67.4807 45.282 67.6524 44.2417 67.9989 43.3319C68.3454 42.4221 68.8382 41.6522 69.4788 41.0191C70.1162 40.3892 70.8792 39.9089 71.7645 39.586C72.6499 39.2599 73.6402 39.0977 74.7354 39.0977C75.8862 39.0977 76.9131 39.2742 77.8159 39.6257C78.7188 39.9805 79.4818 40.4767 80.1017 41.1162C80.7232 41.7572 81.1921 42.5334 81.5132 43.4416C81.8327 44.3515 81.9917 45.3552 81.9917 46.4511C81.9917 47.6218 81.8184 48.6605 81.4719 49.5703C81.1253 50.4817 80.631 51.2516 79.9936 51.8831C79.353 52.5146 78.5932 52.9933 77.7078 53.3178C76.8209 53.6423 75.8322 53.8046 74.7354 53.8046C73.5861 53.8046 72.5593 53.628 71.6549 53.2749C70.7504 52.9233 69.9906 52.4271 69.3691 51.7845C68.7492 51.145 68.2771 50.3688 67.9592 49.459C67.6397 48.5507 67.4807 47.547 67.4807 46.4511Z" fill="white"/>
<path d="M82.8484 33.9136H89.631V47.5086C89.631 48.3771 89.7963 49.3314 90.2779 49.8802C90.6467 50.2985 91.4081 50.6024 92.0852 50.6024C93.2583 50.6024 93.9323 50.1967 94.4775 49.9041L95.8191 52.4109C95.8191 52.4109 94.212 53.8043 91.3842 53.8043C88.6884 53.8043 86.2357 52.185 86.2357 48.3421V36.9771H82.8484V33.9136Z" fill="white"/>
<path d="M11.9356 43.5084L13.5331 40.8903C13.5331 40.8903 11.1854 39.0054 7.37681 39.0054C3.56667 39.0054 1.29521 40.9921 1.29521 43.343C1.29521 45.9516 4.32329 47.0523 6.87769 47.7681C9.34466 48.4584 10.2205 48.7877 10.2205 49.6657C10.2205 50.2654 9.47819 50.9128 8.01421 50.9128C6.36745 50.9128 3.94816 49.8932 2.62884 48.7956L0.827881 51.3756C0.827881 51.3756 3.55236 54.0002 7.91566 54.0002C11.4524 54.0002 13.7572 52.0898 13.7572 49.5114C13.7572 47.8126 12.5714 46.2856 8.89005 45.1786C6.56614 44.4803 4.84307 44.1844 4.84307 43.1744C4.84307 42.5206 5.65851 41.9544 7.38952 41.9544C8.80581 41.9544 10.6195 42.5954 11.9356 43.5084Z" fill="white"/>
<path d="M85.1056 13.3119C85.1056 8.79929 87.1767 4.77183 90.4178 2.12663L87.9 0.222656C84.0851 3.30528 81.6436 8.02306 81.6436 13.3119C81.6436 18.6357 84.1153 23.3789 87.9715 26.46L90.44 24.5162C87.1863 21.8694 85.1056 17.8356 85.1056 13.3119Z" fill="#FF5A5F"/>
<path d="M130.501 13.3119C130.501 8.79929 128.43 4.77183 125.188 2.12663L127.705 0.222656C131.522 3.30528 133.963 8.02306 133.963 13.3119C133.963 18.6357 131.49 23.3789 127.634 26.46L125.167 24.5162C128.421 21.8694 130.501 17.8356 130.501 13.3119Z" fill="#FF5A5F"/>
<path d="M95.9416 20.745L94.228 23.2057C95.2167 23.9835 97.0129 24.7836 98.7837 24.7836C102.395 24.7836 104.935 22.913 104.935 18.3463V7.08789H95.506V9.88897H101.691V18.1761C101.691 20.3235 100.732 21.7343 98.6056 21.7343C97.45 21.7343 96.3119 21.0154 95.9416 20.745Z" fill="#FF5A5F"/>
<path d="M105.323 2.4766C105.323 3.84453 104.215 4.95478 102.848 4.95478C101.481 4.95478 100.373 3.84453 100.373 2.4766C100.373 1.10866 101.481 0 102.848 0C104.215 0 105.323 1.10866 105.323 2.4766Z" fill="#FF5A5F"/>
<path d="M119.549 11.0693L121.088 8.54976C121.088 8.54976 118.828 6.73486 115.162 6.73486C111.495 6.73486 109.308 8.64679 109.308 10.9102C109.308 13.4218 112.222 14.4812 114.681 15.1699C117.055 15.8332 117.899 16.1513 117.899 16.996C117.899 17.5734 117.265 18.1571 115.857 18.1571C114.271 18.1571 111.861 17.2155 110.592 16.1593L108.858 18.6407C108.858 18.6407 111.481 21.1682 115.68 21.1682C119.085 21.1682 121.303 19.3294 121.303 16.848C121.303 15.2113 120.161 13.7431 116.618 12.6774C114.382 12.0046 112.722 11.7199 112.722 10.748C112.722 10.1197 113.508 9.57412 115.173 9.57412C116.537 9.57412 118.283 10.1897 119.549 11.0693Z" fill="#FF5A5F"/>
</svg>