<svg width="75" height="23" viewBox="0 0 75 23" fill="none" xmlns="http://www.w3.org/2000/svg">
<path fill-rule="evenodd" clip-rule="evenodd" d="M14.0212 14.0698C14.037 11.5358 11.7694 9.28627 9.16903 9.25577C6.45659 9.22475 4.1265 11.4624 4.11645 14.1086C4.10693 16.6244 6.44442 18.8228 9.13518 18.8279C11.7387 18.8331 14.0048 16.6265 14.0212 14.0698ZM37.8435 5.89718C38.7193 6.36561 39.412 6.98759 39.9218 7.76467C40.5533 6.92761 41.3222 6.29064 42.2292 5.8522C43.1351 5.41428 44.17 5.19507 45.3309 5.19507C47.4092 5.19507 49.0793 5.85737 50.3427 7.18199C51.6061 8.5066 52.2376 10.3141 52.2376 12.6045V22.2848H48.1734V13.501C48.1734 12.0069 47.8979 10.8766 47.3479 10.1099C46.7979 9.34315 45.9623 8.95952 44.8417 8.95952C43.7211 8.97968 42.8908 9.36796 42.3514 10.1249C41.8114 10.8823 41.5417 12.0069 41.5417 13.501V22.2848H37.477V13.501C37.477 12.0069 37.202 10.8766 36.652 10.1099C36.1015 9.34315 35.2659 8.95952 34.1453 8.95952C33.0247 8.95952 32.1896 9.34315 31.6396 10.1099C31.0896 10.8766 30.8247 12.0069 30.8448 13.501V22.2848H30.7268H26.6764V5.69193H30.7268V7.05118C31.1753 6.4928 31.7491 6.05281 32.4498 5.73277C33.2336 5.37447 34.0739 5.19507 34.9708 5.19507C36.01 5.19507 36.9677 5.42928 37.8435 5.89718ZM24.4532 5.69193V22.2848H20.4027V5.69193H24.4532ZM18.2525 5.64901V22.2868H14.083C14.0529 21.9994 14.0233 21.7248 13.991 21.4167C8.82264 23.7686 4.36448 23.1378 1.1893 18.2241C-0.797569 15.1493 -0.205792 11.069 2.3004 8.35667C5.17308 5.24729 9.00297 4.72716 14.0233 6.82834V5.64901H18.2525ZM61.5267 5.62058C63.6231 5.62058 65.2847 6.09676 66.5121 7.04963C67.7396 8.00199 68.4213 9.28679 68.5582 10.904H64.4184C64.3761 10.5023 64.3 10.1652 64.1894 9.89223C64.0784 9.61924 63.8076 9.36176 63.3756 9.11979C62.9435 8.87782 62.3591 8.75684 61.6214 8.75684C60.8419 8.75684 60.2284 8.88248 59.7805 9.1353C59.3331 9.38761 59.1094 9.72471 59.1094 10.1471C59.1094 10.2914 59.13 10.4227 59.1723 10.5411C59.2146 10.6595 59.2881 10.765 59.3934 10.8575C59.4991 10.9501 59.607 11.0354 59.7175 11.1124C59.8281 11.1894 59.9809 11.2592 60.1755 11.3208C60.3707 11.3828 60.5367 11.434 60.6737 11.4754C60.8101 11.5167 60.9973 11.5632 61.2343 11.6144C61.4712 11.6661 61.661 11.7044 61.8033 11.7302C61.9456 11.7561 62.1481 11.7897 62.4115 11.8311L62.9805 11.9236C63.9287 12.0673 64.7262 12.24 65.3746 12.4412C66.0224 12.6418 66.665 12.9225 67.3022 13.2829C67.9395 13.6432 68.416 14.1272 68.7322 14.7352C69.0479 15.3427 69.2061 16.0789 69.2061 16.9439C69.2061 18.7152 68.5371 20.0517 67.1991 20.9529C65.8617 21.8541 64.0816 22.3044 61.8583 22.3044C59.5303 22.3044 57.7132 21.8179 56.4075 20.8449C55.1007 19.8713 54.4058 18.5095 54.3212 16.7588H58.6191C58.6826 17.4589 58.9856 18.0359 59.5282 18.4888C60.0703 18.9422 60.8683 19.1687 61.9218 19.1687C62.7436 19.1687 63.3967 19.0037 63.8811 18.6744C64.3655 18.3445 64.6083 17.948 64.6083 17.4847C64.6083 17.1859 64.521 16.9387 64.3476 16.7433C64.1736 16.5474 63.897 16.3902 63.5178 16.2723C63.1386 16.1534 62.7986 16.0686 62.4987 16.0174C62.1983 15.9657 61.7901 15.9088 61.2739 15.8473C60.6737 15.7853 60.1787 15.7211 59.7889 15.6539C59.3992 15.5872 58.8486 15.4378 58.1374 15.2062C57.4266 14.9746 56.8496 14.7016 56.4075 14.3872C55.9649 14.0734 55.5698 13.6096 55.2224 12.997C54.8744 12.3843 54.7009 11.676 54.7009 10.873C54.7009 9.28679 55.3064 8.01491 56.518 7.05738C57.7291 6.09934 59.3992 5.62058 61.5267 5.62058ZM24.4431 0.00415039V4.0907H20.3742V0.00415039H24.4431ZM70.773 18.1305H74.8419V22.217H70.773V18.1305Z" fill="white"/>
</svg>
