<svg width="40" height="40" viewBox="0 0 40 40" fill="none" xmlns="http://www.w3.org/2000/svg">
<path d="M20 38.0953C29.9938 38.0953 38.0953 29.9938 38.0953 20C38.0953 10.0063 29.9938 1.90479 20 1.90479C10.0063 1.90479 1.90479 10.0063 1.90479 20C1.90479 29.9938 10.0063 38.0953 20 38.0953Z" fill="#1E96C8"/>
<path d="M28.1956 11.0288C28.2214 11.0116 28.7715 10.7623 29.2614 11.0889C29.6395 11.3468 29.82 11.8366 29.6911 12.3093C28.4965 17.9474 27.2932 23.5854 26.0986 29.2234C26.09 29.2922 26.0212 29.8337 25.5313 30.1259C25.2047 30.3236 24.7922 30.3493 24.4312 30.1946C24.3367 30.1517 24.2421 30.0915 24.1562 30.0313C21.32 27.8999 18.4838 25.7684 15.6476 23.6284L25.5399 14.733C25.5657 14.69 25.6774 14.5525 25.6345 14.4666C25.6001 14.3978 25.4798 14.372 25.3165 14.3978C25.1618 14.415 25.0157 14.4752 24.8867 14.5611C20.8215 17.1223 16.7649 19.6835 12.6996 22.2447L7.17334 20.5687C6.94129 20.3968 6.61469 20.1218 6.64048 19.7952C6.66626 19.4944 6.98426 19.2881 7.10458 19.2108C8.10155 18.592 24.2336 12.5156 28.1956 11.0288Z" fill="white"/>
<path d="M15.6477 23.637L15.2953 29.1031C15.4242 29.0945 15.6133 29.0773 15.8282 28.9828C16.086 28.8711 16.2579 28.7078 16.3524 28.6046C17.2033 27.7624 18.0541 26.9201 18.905 26.0778L15.6477 23.637Z" fill="#A9C9DD"/>
<path d="M15.2868 29.103C15.1407 29.103 14.9688 29.0772 14.8313 28.9655C14.668 28.828 14.6164 28.6303 14.6078 28.5787C14.5133 28.192 13.757 25.691 12.6998 22.2531L24.8869 14.5696C24.9385 14.5352 25.0072 14.4923 25.1018 14.4579C25.2565 14.3977 25.5487 14.329 25.6261 14.4407C25.6604 14.4837 25.6432 14.5524 25.6346 14.5782C25.6346 14.5782 25.6175 14.6641 25.5401 14.7415C25.437 14.8446 21.2944 18.5661 15.6478 23.6369L15.2868 29.103Z" fill="#C8DAEA"/>
</svg>
