<svg width="40" height="40" viewBox="0 0 40 40" fill="none" xmlns="http://www.w3.org/2000/svg">
<path d="M38.6666 12.3559C38.6666 12.3559 38.295 9.55472 37.153 8.32138C35.7037 6.70472 34.0806 6.69519 33.3363 6.60353C28.0049 6.19043 20.0084 6.19043 20.0084 6.19043C15.5628 6.19043 11.097 6.25995 6.6637 6.60353C5.91942 6.69519 4.29749 6.70472 2.84703 8.32138C1.7062 9.55472 1.33346 12.3559 1.33346 12.3559C1.33346 12.3559 0.952393 15.6428 0.952393 18.9297V22.0107C0.952393 25.3 1.33346 28.5857 1.33346 28.5857C1.33346 28.5857 1.70501 31.3857 2.84703 32.6166C4.29749 34.2333 6.19927 34.1845 7.04716 34.3535C10.0945 34.6654 20 34.7619 20 34.7619C20 34.7619 28.0049 34.7476 33.3363 34.3393C34.0806 34.244 35.7037 34.2345 37.153 32.6178C38.2938 31.3869 38.6666 28.5869 38.6666 28.5869C38.6666 28.5869 39.0476 25.3 39.0476 22.0119V18.9309C39.0476 15.6428 38.6666 12.3559 38.6666 12.3559Z" fill="#E02F2F"/>
<path d="M15.2426 13.3333V27.619L27.151 20.4761L15.2426 13.3333Z" fill="white"/>
</svg>
